<?xml version="1.0" encoding="UTF-8" standalone="no"?>
<!DOCTYPE svg PUBLIC "-//W3C//DTD SVG 1.1//EN"
"http://www.w3.org/Graphics/SVG/1.1/DTD/svg11.dtd">
<svg viewBox="0 0 649 952" version="1.1" xmlns="http://www.w3.org/2000/svg" xmlns:xlink="http://www.w3.org/1999/xlink">
<defs>
<style type="text/css"><![CDATA[
.g1_16{
fill: #0154A6;
}
.g2_16{
fill: #007C78;
}
.g3_16{
fill: none;
stroke: #0154A6;
stroke-width: 1.1458334;
stroke-linecap: butt;
stroke-linejoin: miter;
stroke-miterlimit: 4;
}
.g4_16{
fill: none;
stroke: #0154A6;
stroke-width: 1.1458334;
stroke-linecap: butt;
stroke-linejoin: miter;
stroke-miterlimit: 4;
stroke-dasharray: 4,2;
}
.g5_16{
fill: none;
stroke: #0154A6;
stroke-width: 0.7638889;
stroke-linecap: butt;
stroke-linejoin: miter;
stroke-miterlimit: 4;
}
]]></style>
</defs>
<path d="M624.7,952.8l24.9,0l0,-896.5l-24.9,0l0,896.5Z" class="g1_16" />
<path d="M624.7,56.3l24.9,0L649.6,0L624.7,0l0,56.3Z" class="g2_16" />
<path d="M76.4,413.1c0,0,-8.7,0,-8.7,8.6l0,120.2c0,0,0,8.7,8.7,8.7l498.3,0c0,0,8.7,0,8.7,-8.7l0,-120.2c0,0,0,-8.6,-8.7,-8.6l-498.3,0Z" class="g3_16" />
<path d="M42.6,113.8l0,276" class="g3_16" />
<path d="M42.6,92.9l0,18.2" class="g4_16" />
<path d="M60.5,246.3l-17.3,0" class="g5_16" />
<path d="M42.6,484.1l0,333.9" class="g3_16" />
<path d="M67.3,484.5l-24.4,0" class="g3_16" />
<path d="M60.5,577.6l-17.3,0" class="g5_16" />
<path d="M60.5,727l-17.3,0" class="g5_16" />
<path d="M42.5,819.5l0,18.2" class="g4_16" />
<path d="M67.3,389.2l-24.4,0" class="g3_16" />
</svg>