<?xml version="1.0" encoding="UTF-8" standalone="no"?>
<!DOCTYPE svg PUBLIC "-//W3C//DTD SVG 1.1//EN"
"http://www.w3.org/Graphics/SVG/1.1/DTD/svg11.dtd">
<svg viewBox="0 0 660 966" version="1.1" xmlns="http://www.w3.org/2000/svg" xmlns:xlink="http://www.w3.org/1999/xlink">
<defs>
<clipPath id="c0_1"><path d="M3.9,957.6L3.9,4.8l649.6,0l0,952.8Z" /></clipPath>
<style type="text/css"><![CDATA[
.g1_1{
fill: #E7E8E9;
}
.g2_1{
fill: none;
stroke: #FFFFFF;
stroke-width: 1.1458334;
stroke-linecap: butt;
stroke-linejoin: miter;
stroke-miterlimit: 4;
}
.g3_1{
fill: none;
stroke: #0154A6;
stroke-width: 4.5833335;
stroke-linecap: butt;
stroke-linejoin: miter;
stroke-miterlimit: 4;
}
.g4_1{
fill: #935702;
}
.g5_1{
fill: #B96F11;
}
.g6_1{
fill: #DA8318;
}
.g7_1{
fill: #7D0507;
}
.g8_1{
fill: #9E1519;
}
.g9_1{
fill: #BB1D21;
}
.g10_1{
fill: #3D0258;
}
.g11_1{
fill: #4D176F;
}
.g12_1{
fill: #5C2381;
}
.g13_1{
fill: #002B66;
}
.g14_1{
fill: #013D81;
}
.g15_1{
fill: #014A95;
}
.g16_1{
fill: #00672F;
}
.g17_1{
fill: #00803D;
}
.g18_1{
fill: #009549;
}
]]></style>
</defs>
<g clip-path="url(#c0_1)">
<path d="M-10.1,980l678,0l0,-987.1l-678,0l0,987.1Z" class="g1_1" />
<path d="M542.5,974L470.1,929.8L470,810.4l72.4,44.3L542.5,974Z" class="g1_1" />
<path d="M542.5,974L470.1,929.8L470,810.4l72.4,44.3L542.5,974Z" class="g2_1" />
</g>
<path d="M542.4,854.7L470,810.4L578.5,792.8l72.4,44.3L542.4,854.7Z" class="g1_1" />
<path d="M542.4,854.7L470,810.4L578.5,792.8l72.4,44.3L542.4,854.7Z" class="g2_1" />
<g clip-path="url(#c0_1)">
<path d="M650.9,837.1L651,956.5L542.5,974L542.4,854.7L650.9,837.1Z" class="g1_1" />
<path d="M650.9,837.1L651,956.5L542.5,974L542.4,854.7L650.9,837.1Z" class="g2_1" />
</g>
<path d="M565.6,311.1L493.3,266.9L493.1,147.5l72.4,44.3l0.1,119.3Z" class="g1_1" />
<path d="M565.6,311.1L493.3,266.9L493.1,147.5l72.4,44.3l0.1,119.3Z" class="g2_1" />
<g clip-path="url(#c0_1)">
<path d="M565.5,191.8L493.1,147.5L601.6,129.9L674,174.2L565.5,191.8Z" class="g1_1" />
<path d="M565.5,191.8L493.1,147.5L601.6,129.9L674,174.2L565.5,191.8Z" class="g2_1" />
<path d="M674,174.2l0.1,119.4L565.6,311.1L565.5,191.8L674,174.2Z" class="g1_1" />
<path d="M674,174.2l0.1,119.4L565.6,311.1L565.5,191.8L674,174.2Z" class="g2_1" />
<path d="M432.4,989.4L364.1,952.5L364,847l68.3,36.9l0.1,105.5Z" class="g1_1" />
<path d="M432.4,989.4L364.1,952.5L364,847l68.3,36.9l0.1,105.5Z" class="g2_1" />
</g>
<path d="M432.3,883.9L364,847L472.5,831.5l68.3,36.9L432.3,883.9Z" class="g1_1" />
<path d="M432.3,883.9L364,847L472.5,831.5l68.3,36.9L432.3,883.9Z" class="g2_1" />
<g clip-path="url(#c0_1)">
<path d="M540.8,868.4l0.1,105.4L432.4,989.4L432.3,883.9L540.8,868.4Z" class="g1_1" />
<path d="M540.8,868.4l0.1,105.4L432.4,989.4L432.3,883.9L540.8,868.4Z" class="g2_1" />
</g>
<path d="M455.6,329.6L383.2,285.4L383.1,166l72.3,44.3l0.2,119.3Z" class="g1_1" />
<path d="M455.6,329.6L383.2,285.4L383.1,166l72.3,44.3l0.2,119.3Z" class="g2_1" />
<path d="M455.4,210.3L383.1,166L491.6,148.4L564,192.7L455.4,210.3Z" class="g1_1" />
<path d="M455.4,210.3L383.1,166L491.6,148.4L564,192.7L455.4,210.3Z" class="g2_1" />
<path d="M564,192.7l0.1,119.4L455.6,329.6L455.4,210.3L564,192.7Z" class="g1_1" />
<path d="M564,192.7l0.1,119.4L455.6,329.6L455.4,210.3L564,192.7Z" class="g2_1" />
<path d="M401.7,521.3L329.3,477L329.2,357.6l72.3,44.3l0.2,119.4Z" class="g1_1" />
<path d="M401.7,521.3L329.3,477L329.2,357.6l72.3,44.3l0.2,119.4Z" class="g2_1" />
<path d="M401.5,401.9L329.2,357.6L437.7,340l72.4,44.3L401.5,401.9Z" class="g1_1" />
<path d="M401.5,401.9L329.2,357.6L437.7,340l72.4,44.3L401.5,401.9Z" class="g2_1" />
<path d="M510.1,384.3l0.1,119.4L401.7,521.3L401.5,401.9L510.1,384.3Z" class="g1_1" />
<path d="M510.1,384.3l0.1,119.4L401.7,521.3L401.5,401.9L510.1,384.3Z" class="g2_1" />
<path d="M293.1,539L220.8,494.7L220.6,375.3L293,419.6L293.1,539Z" class="g1_1" />
<path d="M293.1,539L220.8,494.7L220.6,375.3L293,419.6L293.1,539Z" class="g2_1" />
<path d="M293,419.6L220.6,375.3L329.1,357.8L401.5,402L293,419.6Z" class="g1_1" />
<path d="M293,419.6L220.6,375.3L329.1,357.8L401.5,402L293,419.6Z" class="g2_1" />
<path d="M401.5,402l0.2,119.4L293.1,539L293,419.6L401.5,402Z" class="g1_1" />
<path d="M401.5,402l0.2,119.4L293.1,539L293,419.6L401.5,402Z" class="g2_1" />
<path d="M346.6,231.9L274.2,187.6L274.1,68.3l72.4,44.2l0.1,119.4Z" class="g1_1" />
<path d="M346.6,231.9L274.2,187.6L274.1,68.3l72.4,44.2l0.1,119.4Z" class="g2_1" />
<path d="M346.5,112.5L274.1,68.3L382.6,50.7L455,95L346.5,112.5Z" class="g1_1" />
<path d="M346.5,112.5L274.1,68.3L382.6,50.7L455,95L346.5,112.5Z" class="g2_1" />
<path d="M455,95l0.1,119.3L346.6,231.9L346.5,112.5L455,95Z" class="g1_1" />
<path d="M455,95l0.1,119.3L346.6,231.9L346.5,112.5L455,95Z" class="g2_1" />
<path d="M149.2,855.5L76.9,811.2L76.7,691.8l72.4,44.3l0.1,119.4Z" class="g1_1" />
<path d="M149.2,855.5L76.9,811.2L76.7,691.8l72.4,44.3l0.1,119.4Z" class="g2_1" />
<path d="M149.1,736.1L76.7,691.8L185.2,674.2l72.4,44.3L149.1,736.1Z" class="g1_1" />
<path d="M149.1,736.1L76.7,691.8L185.2,674.2l72.4,44.3L149.1,736.1Z" class="g2_1" />
<path d="M257.6,718.5l0.1,119.4L149.2,855.5L149.1,736.1L257.6,718.5Z" class="g1_1" />
<path d="M257.6,718.5l0.1,119.4L149.2,855.5L149.1,736.1L257.6,718.5Z" class="g2_1" />
<path d="M257.6,720.2L185.3,675.9L185.1,556.5l72.4,44.3l0.1,119.4Z" class="g1_1" />
<path d="M257.6,720.2L185.3,675.9L185.1,556.5l72.4,44.3l0.1,119.4Z" class="g2_1" />
<path d="M257.5,600.8L185.1,556.5L293.6,539L366,583.2L257.5,600.8Z" class="g1_1" />
<path d="M257.5,600.8L185.1,556.5L293.6,539L366,583.2L257.5,600.8Z" class="g2_1" />
<path d="M366,583.2l0.2,119.4L257.6,720.2L257.5,600.8L366,583.2Z" class="g1_1" />
<path d="M366,583.2l0.2,119.4L257.6,720.2L257.5,600.8L366,583.2Z" class="g2_1" />
<path d="M76.7,694.3L4.3,650L4.2,530.6l72.4,44.3l0.1,119.4Z" class="g1_1" />
<path d="M76.7,694.3L4.3,650L4.2,530.6l72.4,44.3l0.1,119.4Z" class="g2_1" />
<path d="M76.6,574.9L4.2,530.6L112.7,513.1l72.4,44.2L76.6,574.9Z" class="g1_1" />
<path d="M76.6,574.9L4.2,530.6L112.7,513.1l72.4,44.2L76.6,574.9Z" class="g2_1" />
<path d="M185.1,557.3l0.1,119.4L76.7,694.3L76.6,574.9L185.1,557.3Z" class="g1_1" />
<path d="M185.1,557.3l0.1,119.4L76.7,694.3L76.6,574.9L185.1,557.3Z" class="g2_1" />
<path d="M115.6,380.2L43.2,336L43.1,216.6l72.3,44.3l0.2,119.3Z" class="g1_1" />
<path d="M115.6,380.2L43.2,336L43.1,216.6l72.3,44.3l0.2,119.3Z" class="g2_1" />
<path d="M115.4,260.9L43.1,216.6L151.6,199l72.3,44.3L115.4,260.9Z" class="g1_1" />
<path d="M115.4,260.9L43.1,216.6L151.6,199l72.3,44.3L115.4,260.9Z" class="g2_1" />
<path d="M223.9,243.3l0.2,119.4L115.6,380.2L115.4,260.9L223.9,243.3Z" class="g1_1" />
<path d="M223.9,243.3l0.2,119.4L115.6,380.2L115.4,260.9L223.9,243.3Z" class="g2_1" />
<path d="M433.3,887L361,842.8L360.8,723.4l72.4,44.3L433.3,887Z" class="g1_1" />
<path d="M433.3,887L361,842.8L360.8,723.4l72.4,44.3L433.3,887Z" class="g2_1" />
<path d="M433.2,767.7L360.8,723.4L469.3,705.8l72.4,44.3L433.2,767.7Z" class="g1_1" />
<path d="M433.2,767.7L360.8,723.4L469.3,705.8l72.4,44.3L433.2,767.7Z" class="g2_1" />
<path d="M541.7,750.1l0.1,119.4L433.3,887L433.2,767.7L541.7,750.1Z" class="g1_1" />
<path d="M541.7,750.1l0.1,119.4L433.3,887L433.2,767.7L541.7,750.1Z" class="g2_1" />
<path d="M148.9,737.7L76.5,693.5L76.4,574.1l72.4,44.3l0.1,119.3Z" class="g1_1" />
<path d="M148.9,737.7L76.5,693.5L76.4,574.1l72.4,44.3l0.1,119.3Z" class="g2_1" />
<path d="M148.8,618.4L76.4,574.1L184.9,556.5l72.4,44.3L148.8,618.4Z" class="g1_1" />
<path d="M148.8,618.4L76.4,574.1L184.9,556.5l72.4,44.3L148.8,618.4Z" class="g2_1" />
<path d="M257.3,600.8l0.1,119.4L148.9,737.7L148.8,618.4L257.3,600.8Z" class="g1_1" />
<path d="M257.3,600.8l0.1,119.4L148.9,737.7L148.8,618.4L257.3,600.8Z" class="g2_1" />
<g clip-path="url(#c0_1)">
<path d="M-53.7,240.5l-72.4,-44.3L-17.6,178.7L54.7,223L-53.7,240.5Z" class="g1_1" />
<path d="M-53.7,240.5l-72.4,-44.3L-17.6,178.7L54.7,223L-53.7,240.5Z" class="g2_1" />
<path d="M54.7,223l0.1,119.3L-53.6,359.9L-53.7,240.5L54.7,223Z" class="g1_1" />
<path d="M54.7,223l0.1,119.3L-53.6,359.9L-53.7,240.5L54.7,223Z" class="g2_1" />
<path d="M54.7,224.6L-17.6,180.3L-17.7,61l72.3,44.2l0.1,119.4Z" class="g1_1" />
<path d="M54.7,224.6L-17.6,180.3L-17.7,61l72.3,44.2l0.1,119.4Z" class="g2_1" />
<path d="M54.6,105.2L-17.7,61L90.7,43.4l72.4,44.3L54.6,105.2Z" class="g1_1" />
<path d="M54.6,105.2L-17.7,61L90.7,43.4l72.4,44.3L54.6,105.2Z" class="g2_1" />
</g>
<path d="M163.1,87.7L163.2,207L54.7,224.6L54.6,105.2L163.1,87.7Z" class="g1_1" />
<path d="M163.1,87.7L163.2,207L54.7,224.6L54.6,105.2L163.1,87.7Z" class="g2_1" />
<path d="M247.1,336.3l355.3,0" class="g3_1" />
<path d="M323.1,722.5l-34.8,-19l0.1,-55.1l34.8,18.9l-0.1,55.2Z" class="g4_1" />
<path d="M323.2,667.3L288.4,648.4l55.7,-7.9l34.8,19l-55.7,7.8Z" class="g5_1" />
<path d="M378.9,659.5l-0.1,55.1l-55.7,7.9l0.1,-55.2l55.7,-7.8Z" class="g6_1" />
<path d="M394.9,900L358,877.3l0.1,-61L395,839l-0.1,61Z" class="g7_1" />
<path d="M395,839L358.1,816.3l55.4,-8.8l36.9,22.7L395,839Z" class="g8_1" />
<path d="M450.4,830.2l-0.1,60.9L394.9,900L395,839l55.4,-8.8Z" class="g9_1" />
<path d="M407.6,561.6L370.7,538.9L370.8,478l36.9,22.7l-0.1,60.9Z" class="g10_1" />
<path d="M407.7,500.7L370.8,478l55.4,-8.8l36.9,22.7l-55.4,8.8Z" class="g11_1" />
<path d="M463.1,491.9L463,552.8l-55.4,8.8l0.1,-60.9l55.4,-8.8Z" class="g12_1" />
<path d="M351.4,570.9L314.5,548.2l0.1,-60.9L351.5,510l-0.1,60.9Z" class="g13_1" />
<path d="M351.5,510L314.6,487.3L370,478.5l36.9,22.7L351.5,510Z" class="g14_1" />
<path d="M406.9,501.2l-0.1,60.9l-55.4,8.8L351.5,510l55.4,-8.8Z" class="g15_1" />
<path d="M323.6,668.6L286.7,645.9L286.8,585l36.9,22.7l-0.1,60.9Z" class="g16_1" />
<path d="M323.7,607.7L286.8,585l55.4,-8.8l36.9,22.7l-55.4,8.8Z" class="g17_1" />
<path d="M379.1,598.9L379,659.8l-55.4,8.8l0.1,-60.9l55.4,-8.8Z" class="g18_1" />
<path d="M268.2,677.5L231.3,654.8l0.1,-60.9l36.9,22.7l-0.1,60.9Z" class="g13_1" />
<path d="M268.3,616.6L231.4,593.9l55.4,-8.8l36.9,22.7l-55.4,8.8Z" class="g14_1" />
<path d="M323.7,607.8l-0.1,60.9l-55.4,8.8l0.1,-60.9l55.4,-8.8Z" class="g15_1" />
<path d="M351.4,512L314.5,489.3l0.1,-60.9l36.9,22.7L351.4,512Z" class="g16_1" />
<path d="M351.5,451.1L314.6,428.4L370,419.5l36.9,22.8l-55.4,8.8Z" class="g17_1" />
<path d="M406.9,442.3l-0.1,60.9L351.4,512l0.1,-60.9l55.4,-8.8Z" class="g18_1" />
<path d="M295.9,520.9L259,498.2l0.1,-61L296,460l-0.1,60.9Z" class="g13_1" />
<path d="M296,460L259.1,437.2l55.5,-8.8l36.8,22.7L296,460Z" class="g14_1" />
<path d="M351.4,451.1l-0.1,61l-55.4,8.8L296,460l55.4,-8.9Z" class="g15_1" />
<path d="M194.3,838.9L157.4,816.2l0.1,-61L194.4,778l-0.1,60.9Z" class="g13_1" />
<path d="M194.4,778L157.5,755.2l55.4,-8.8l36.9,22.7L194.4,778Z" class="g14_1" />
<path d="M249.8,769.1l-0.1,61l-55.4,8.8L194.4,778l55.4,-8.9Z" class="g15_1" />
<path d="M249.8,770L212.9,747.3l0.1,-61l36.9,22.8L249.8,770Z" class="g7_1" />
<path d="M249.9,709.1L213,686.3l55.4,-8.8l36.9,22.7l-55.4,8.9Z" class="g8_1" />
<path d="M305.3,700.2l-0.1,61L249.8,770l0.1,-60.9l55.4,-8.9Z" class="g9_1" />
<path d="M157.5,756.5L120.6,733.8l0.1,-60.9l36.9,22.7l-0.1,60.9Z" class="g7_1" />
<path d="M157.6,695.6L120.7,672.9l55.4,-8.8L213,686.8l-55.4,8.8Z" class="g8_1" />
<path d="M213,686.8l-0.1,60.9l-55.4,8.8l0.1,-60.9L213,686.8Z" class="g9_1" />
<path d="M177.8,596.3L140.9,573.6l0.1,-61l36.9,22.7l-0.1,61Z" class="g10_1" />
<path d="M177.9,535.3L141,512.6l55.4,-8.8l36.9,22.7l-55.4,8.8Z" class="g11_1" />
<path d="M233.3,526.5l-0.1,61l-55.4,8.8l0.1,-61l55.4,-8.8Z" class="g12_1" />
<path d="M339.6,854.7L302.8,832l0.1,-60.9l36.8,22.7l-0.1,60.9Z" class="g10_1" />
<path d="M339.7,793.8L302.9,771.1l55.4,-8.9l36.8,22.7l-55.4,8.9Z" class="g11_1" />
<path d="M395.1,784.9l-0.1,61l-55.4,8.8l0.1,-60.9l55.4,-8.9Z" class="g12_1" />
<path d="M194.3,778.8L157.4,756.1l0.1,-60.9l36.9,22.7l-0.1,60.9Z" class="g16_1" />
<path d="M194.4,717.9L157.5,695.2l55.4,-8.9l36.9,22.8l-55.4,8.8Z" class="g17_1" />
<path d="M249.8,709.1L249.7,770l-55.4,8.8l0.1,-60.9l55.4,-8.8Z" class="g18_1" />
<path d="M91.4,585.6L54.5,562.9L54.6,502l36.9,22.7l-0.1,60.9Z" class="g13_1" />
<path d="M91.5,524.7L54.6,502L110,493.2l36.9,22.7l-55.4,8.8Z" class="g14_1" />
<path d="M146.9,515.9l-0.1,60.9l-55.4,8.8l0.1,-60.9l55.4,-8.8Z" class="g15_1" />
<path d="M146.9,516.7L110,494l0.1,-60.9L147,455.8l-0.1,60.9Z" class="g7_1" />
<path d="M147,455.8L110.1,433.1l55.5,-8.8L202.4,447L147,455.8Z" class="g8_1" />
<path d="M202.4,447l-0.1,60.9l-55.4,8.8L147,455.8L202.4,447Z" class="g9_1" />
<path d="M239,467L204.2,448l0.1,-55.1l34.8,18.9L239,467Z" class="g4_1" />
<path d="M239.1,411.8L204.3,392.9L260,385.1L294.8,404l-55.7,7.8Z" class="g5_1" />
<path d="M294.8,404l-0.1,55.2L239,467l0.1,-55.2L294.8,404Z" class="g6_1" />
<path d="M125.1,657.6l-34.8,-19l0.1,-55.1l34.8,18.9l-0.1,55.2Z" class="g4_1" />
<path d="M125.2,602.4L90.4,583.5L146,575.7l34.9,18.9l-55.7,7.8Z" class="g5_1" />
<path d="M180.9,594.6l-0.1,55.2l-55.7,7.8l0.1,-55.2l55.7,-7.8Z" class="g6_1" />
</svg>