<?xml version="1.0" encoding="UTF-8" standalone="no"?>
<!DOCTYPE svg PUBLIC "-//W3C//DTD SVG 1.1//EN"
"http://www.w3.org/Graphics/SVG/1.1/DTD/svg11.dtd">
<svg viewBox="0 0 657 960" version="1.1" xmlns="http://www.w3.org/2000/svg" xmlns:xlink="http://www.w3.org/1999/xlink">
<defs>
<clipPath id="c0_58"><path d="M0.9,957.6L0.9,4.8l649.6,0l0,952.8Z" /></clipPath>
<style type="text/css"><![CDATA[
.g1_58{
fill: #E7E8E9;
}
.g2_58{
fill: #FFFFFF;
}
.g3_58{
fill: #001522;
}
.g4_58{
fill: #FFDD01;
}
.g5_58{
fill: #143346;
}
.g6_58{
fill: #B79F33;
}
.g7_58{
fill: #014182;
}
.g8_58{
fill: #00A54F;
}
.g9_58{
fill: #FED304;
}
]]></style>
</defs>
<g clip-path="url(#c0_58)">
<path d="M-8.8,980l678.1,0l0,-987.1l-678.1,0l0,987.1Z" class="g1_58" />
</g>
<path d="M27.7,925l593.6,0l0,-67.2l-593.6,0l0,67.2Z" class="g2_58" />
<path d="M433.7,868.7l0,0c0,-1.2,0.9,-2.2,2.2,-2.2c0.8,0,1.2,0.2,1.6,0.6l-0.4,0.6c-0.4,-0.3,-0.7,-0.5,-1.2,-0.5c-0.8,0,-1.4,0.7,-1.4,1.5c0,0.9,0.6,1.5,1.5,1.5c0.4,0,0.7,-0.1,1,-0.3l0,-0.8l-1.1,0l0,-0.6l1.8,0l0,1.7c-0.4,0.4,-1,0.7,-1.8,0.7c-1.3,0,-2.2,-0.9,-2.2,-2.2Z" class="g3_58" />
<path d="M449.5,868.7l0,0c0,-0.8,-0.6,-1.5,-1.4,-1.5c-0.9,0,-1.5,0.7,-1.5,1.5c0,0.8,0.6,1.5,1.5,1.5c0.8,0,1.4,-0.6,1.4,-1.5Zm-3.6,0l0,0c0,-1.2,0.9,-2.2,2.2,-2.2c1.3,0,2.2,1,2.2,2.2c0,1.2,-0.9,2.2,-2.2,2.2c-1.3,0,-2.2,-1,-2.2,-2.2Z" class="g3_58" />
<path d="M458.2,866.6l0.8,0l1.3,3.3l1.3,-3.3l0.8,0l-1.8,4.3l-0.6,0l-1.8,-4.3Z" class="g3_58" />
<path d="M470.5,866.6l3.1,0l0,0.7l-2.3,0l0,1.1l2.1,0l0,0.6l-2.1,0l0,1.2l2.4,0l0,0.6l-3.2,0l0,-4.2Z" class="g3_58" />
<path d="M483.8,868.7c0.5,0,0.9,-0.3,0.9,-0.7c0,-0.5,-0.4,-0.7,-0.9,-0.7l-1.1,0l0,1.4l1.1,0ZM482,866.6l1.8,0c0.6,0,1,0.2,1.3,0.4c0.2,0.3,0.3,0.6,0.3,0.9l0,0.1c0,0.6,-0.4,1.1,-1,1.2l1.1,1.6l-0.8,0l-1.1,-1.4l-0.9,0l0,1.4l-0.7,0l0,-4.2Z" class="g3_58" />
<path d="M493.7,866.6l0.7,0l2.3,2.9l0,-2.9l0.7,0l0,4.2l-0.6,0l-2.3,-3l0,3l-0.8,0l0,-4.2Z" class="g3_58" />
<path d="M509.3,868.7l0,0c0,-0.8,-0.6,-1.5,-1.4,-1.5c-0.8,0,-1.4,0.7,-1.4,1.5c0,0.8,0.6,1.5,1.4,1.5c0.9,0,1.4,-0.6,1.4,-1.5Zm-3.6,0l0,0c0,-1.2,0.9,-2.2,2.2,-2.2c1.3,0,2.2,1,2.2,2.2c0,1.2,-0.9,2.2,-2.2,2.2c-1.3,0,-2.2,-1,-2.2,-2.2Z" class="g3_58" />
<path d="M527.6,866.6l3.2,0l0,0.7l-2.4,0l0,1.1l2.1,0l0,0.7l-2.1,0l0,1.7l-0.8,0l0,-4.2Z" class="g3_58" />
<path d="M539,866.6l3.1,0l0,0.7l-2.4,0l0,1.1l2.2,0l0,0.6l-2.2,0l0,1.2l2.5,0l0,0.6l-3.2,0l0,-4.2Z" class="g3_58" />
<path d="M552,870.2c0.9,0,1.5,-0.6,1.5,-1.5c0,-0.8,-0.6,-1.4,-1.5,-1.4l-0.8,0l0,2.9l0.8,0Zm-1.6,-3.6l1.6,0c1.3,0,2.3,0.9,2.3,2.1c0,1.2,-1,2.1,-2.3,2.1l-1.6,0l0,-4.2Z" class="g3_58" />
<path d="M562.6,866.6l3.1,0l0,0.7l-2.4,0l0,1.1l2.1,0l0,0.6l-2.1,0l0,1.2l2.4,0l0,0.6l-3.1,0l0,-4.2Z" class="g3_58" />
<path d="M575.8,868.7c0.6,0,0.9,-0.3,0.9,-0.7c0,-0.5,-0.3,-0.7,-0.9,-0.7l-1.1,0l0,1.4l1.1,0ZM574,866.6l1.9,0c0.5,0,0.9,0.2,1.2,0.4c0.2,0.3,0.3,0.6,0.3,0.9l0,0.1c0,0.6,-0.4,1.1,-1,1.2l1.2,1.6l-0.9,0l-1,-1.4l-1,0l0,1.4l-0.7,0l0,-4.2Z" class="g3_58" />
<path d="M588.3,869.2l-0.7,-1.7l-0.7,1.7l1.4,0Zm-1,-2.6l0.6,0l1.9,4.2l-0.8,0l-0.4,-1l-2,0l-0.4,1l-0.8,0l1.9,-4.2Z" class="g3_58" />
<path d="M597.9,866.6l0.8,0l0,3.6l2.2,0l0,0.6l-3,0l0,-4.2Z" class="g3_58" />
<path d="M602.5,906.4c0,0.8,-0.7,1.6,-1.6,1.6l-167,0c-0.9,0,-1.7,-0.8,-1.7,-1.6l0,-30.5c0,-0.9,0.8,-1.6,1.7,-1.6l167,0c0.9,0,1.6,0.7,1.6,1.6l0,30.5Z" class="g4_58" />
<image x="431" y="873" width="34" height="37" xlink:href="shade/1.png" />
<image x="463" y="873" width="35" height="37" xlink:href="shade/2.png" />
<image x="561" y="873" width="14" height="37" xlink:href="shade/3.png" />
<image x="574" y="873" width="29" height="37" xlink:href="shade/4.png" />
<path d="M530.6,913.7c-1,-0.3,-1.2,-0.4,-1.2,-0.8c0,-0.2,0.2,-0.5,0.7,-0.5c0.5,0,0.9,0.3,1.4,0.6l0.7,-0.9c-0.6,-0.5,-1.3,-0.7,-2.1,-0.7c-1.1,0,-2,0.6,-2,1.6c0,1.1,0.8,1.4,1.9,1.7c0.9,0.2,1.1,0.4,1.1,0.7c0,0.3,-0.3,0.5,-0.8,0.5c-0.6,0,-1.1,-0.2,-1.6,-0.6l-0.8,0.8c0.7,0.6,1.5,0.9,2.4,0.9c1.2,0,2.1,-0.6,2.1,-1.7c0,-1,-0.7,-1.4,-1.8,-1.6Zm5.4,1l2.6,0l0,-1.1l-2.6,0l0,-1.1l3,0l0,-1l-4.2,0l0,5.4l4.2,0l0,-1.1l-3,0l0,-1.1Zm-15.6,-1c-1,-0.3,-1.2,-0.4,-1.2,-0.8c0,-0.2,0.2,-0.5,0.7,-0.5c0.5,0,1,0.3,1.5,0.6l0.6,-0.9c-0.6,-0.5,-1.3,-0.7,-2.1,-0.7c-1.1,0,-1.9,0.6,-1.9,1.6c0,1.1,0.7,1.4,1.8,1.7c1,0.2,1.1,0.4,1.1,0.7c0,0.3,-0.3,0.5,-0.8,0.5c-0.6,0,-1.1,-0.2,-1.6,-0.6l-0.8,0.8c0.7,0.6,1.6,0.9,2.4,0.9c1.2,0,2.1,-0.6,2.1,-1.7c0,-1,-0.7,-1.4,-1.8,-1.6Zm23.8,0.1l-1.4,-2.3l-1.4,0l0,5.4l1.3,0l0,-3.5l1.5,2.3l1.6,-2.3l0,3.5l1.2,0l0,-5.4l-1.3,0l-1.5,2.3ZM504,913.4c0,0.5,-0.4,0.8,-1,0.8l-1,0l0,-1.7l1,0c0.6,0,1,0.3,1,0.9Zm-0.9,-1.9l-2.3,0l0,5.4l1.2,0l0,-1.6l1,0c1.2,0,2.2,-0.7,2.2,-1.9l0,-0.1c0,-1.1,-0.8,-1.8,-2.1,-1.8Zm11.1,5.4l1.3,0l0,-5.4l-1.3,0l0,5.4Zm-5.7,-2.3l0.7,-1.7l0.8,1.7l-1.5,0Zm0.2,-3.2l-2.4,5.5l1.2,0l0.6,-1.2l2.3,0l0.5,1.2l1.3,0l-2.4,-5.5l-1.1,0Zm75,3.3l2.6,0l0,-1.1l-2.6,0l0,-1.1l3,0l0,-1l-4.2,0l0,5.4l4.2,0l0,-1.1l-3,0l0,-1.1Zm5.4,-2.2l3,0L589,916l0,0.9l4.7,0l0,-1l-3.1,0l3.1,-3.5l0,-0.9l-4.6,0l0,1Zm-32.5,0.9c0,0.5,-0.3,0.8,-0.9,0.8l-1,0l0,-1.7l0.9,0c0.7,0,1,0.3,1,0.9Zm-0.9,-1.9l-2.2,0l0,5.4l1.2,0l0,-1.6l0.9,0c1.3,0,2.3,-0.7,2.3,-1.9l0,-0.1c0,-1.1,-0.8,-1.8,-2.2,-1.8Zm42.2,3.1l0.7,-1.7l0.8,1.7l-1.5,0Zm1.3,-3.2l-1.1,0l-2.4,5.5l1.2,0l0.5,-1.2l2.4,0l0.5,1.2l1.3,0l-2.4,-5.5Zm-34.7,2.8c0,0.9,-0.6,1.7,-1.6,1.7c-1,0,-1.7,-0.8,-1.7,-1.7c0,-1,0.7,-1.7,1.6,-1.7c1,0,1.7,0.8,1.7,1.7Zm-1.6,-2.8c-1.8,0,-3,1.2,-3,2.8c0,1.5,1.2,2.8,2.9,2.8c1.8,0,3,-1.3,3,-2.8c0,-1.6,-1.2,-2.8,-2.9,-2.8Zm8.9,3.9c0,0.4,-0.3,0.6,-0.9,0.6l-1.4,0l0,-1.2l1.4,0c0.6,0,0.9,0.2,0.9,0.6Zm-2.3,-2.8l1.2,0c0.5,0,0.8,0.2,0.8,0.6c0,0.4,-0.4,0.6,-0.9,0.6l-1.1,0l0,-1.2Zm2.5,1.6c0.4,-0.3,0.7,-0.6,0.7,-1.2c0,-0.4,-0.1,-0.7,-0.4,-0.9c-0.3,-0.4,-0.8,-0.5,-1.4,-0.5l-2.6,0l0,5.4l2.6,0c1.3,0,2.1,-0.5,2.1,-1.5c0,-0.7,-0.4,-1.1,-1,-1.3Zm6.8,-0.8c0,0.5,-0.4,0.8,-1,0.8l-1.2,0l0,-1.6l1.2,0c0.6,0,1,0.3,1,0.8Zm1.2,0l0,0c0,-0.5,-0.1,-1,-0.4,-1.3c-0.4,-0.3,-1,-0.5,-1.7,-0.5l-2.5,0l0,5.4l1.2,0l0,-1.7l1,0l1.2,1.7l1.4,0L578.8,915c0.7,-0.3,1.2,-0.8,1.2,-1.7Zm-115.9,0c0,0.5,-0.4,0.8,-1,0.8l-1.2,0l0,-1.6l1.2,0c0.6,0,1,0.3,1,0.8Zm1.2,0l0,0c0,-0.5,-0.2,-1,-0.5,-1.3c-0.3,-0.3,-0.9,-0.5,-1.6,-0.5l-2.6,0l0,5.4l1.3,0l0,-1.7l0.9,0l1.2,1.7l1.5,0L464.1,915c0.7,-0.3,1.2,-0.8,1.2,-1.7Zm-24.5,1.3l0.8,-1.7l0.7,1.7l-1.5,0Zm0.2,-3.2l-2.4,5.5l1.3,0l0.5,-1.2l2.4,0l0.5,1.2l1.3,0l-2.4,-5.5l-1.2,0Zm5.5,5.5l1.2,0l0,-5.4l-1.2,0l0,5.4Zm6.2,-3.2c-0.9,-0.3,-1.2,-0.4,-1.2,-0.8c0,-0.2,0.3,-0.5,0.7,-0.5c0.5,0,1,0.3,1.5,0.6l0.6,-0.9c-0.5,-0.5,-1.2,-0.7,-2,-0.7c-1.2,0,-2,0.6,-2,1.6c0,1.1,0.7,1.4,1.9,1.7c0.9,0.2,1.1,0.4,1.1,0.7c0,0.3,-0.3,0.5,-0.8,0.5c-0.7,0,-1.2,-0.2,-1.7,-0.6l-0.7,0.8c0.7,0.6,1.5,0.9,2.4,0.9c1.2,0,2,-0.6,2,-1.7c0,-1,-0.6,-1.4,-1.8,-1.6Zm-16.2,-0.3c0,0.5,-0.4,0.8,-1,0.8l-1,0l0,-1.7l1,0c0.6,0,1,0.3,1,0.9Zm-0.9,-1.9l-2.3,0l0,5.4l1.2,0l0,-1.6l1,0c1.2,0,2.2,-0.7,2.2,-1.9l0,-0.1c0,-1.1,-0.8,-1.8,-2.1,-1.8Zm78.7,-0.3l1,0l0.8,-0.8l-1.3,0l-0.5,0.8Zm-22.4,0l0.9,0l0.9,-0.8l-1.3,0l-0.5,0.8Zm-45.3,0l0.9,0l0.9,-0.8l-1.3,0l-0.5,0.8Zm45,3.5l2.7,0l0,-1.1l-2.7,0l0,-1.1l3,0l0,-1l-4.2,0l0,5.4l4.3,0l0,-1.1l-3.1,0l0,-1.1Zm-23.8,2.2l1.2,0l0,-5.4l-1.2,0l0,5.4Zm6.5,-1c-1,0,-1.6,-0.8,-1.6,-1.7c0,-1,0.6,-1.7,1.6,-1.7c0.5,0,1,0.2,1.4,0.6l0.8,-0.9c-0.5,-0.5,-1.2,-0.8,-2.2,-0.8c-1.7,0,-2.9,1.2,-2.9,2.8c0,1.6,1.2,2.8,2.8,2.8c1.1,0,1.8,-0.4,2.3,-1l-0.7,-0.7c-0.5,0.3,-0.9,0.6,-1.5,0.6Zm8.6,-1.7c0,0.9,-0.6,1.7,-1.6,1.7c-1,0,-1.7,-0.8,-1.7,-1.7c0,-1,0.7,-1.7,1.7,-1.7c0.9,0,1.6,0.8,1.6,1.7Zm-1.6,-2.8c-1.8,0,-3,1.2,-3,2.8c0,1.5,1.2,2.8,3,2.8c1.7,0,2.9,-1.3,2.9,-2.8c0,-1.6,-1.2,-2.8,-2.9,-2.8Z" class="g5_58" />
<image x="493" y="873" width="42" height="37" xlink:href="shade/5.png" />
<path d="M500.6,891.7l-4.1,-2.6l4.2,2.3l-0.1,0.3m25.9,-0.1l-0.1,-0.2l4.1,-2.3l-4,2.5Z" class="g6_58" />
<image x="499" y="890" width="28" height="12" xlink:href="shade/6.png" />
<image x="495" y="878" width="37" height="23" xlink:href="shade/7.png" />
<image x="506" y="882" width="15" height="15" xlink:href="shade/8.png" />
<path d="M507.7,887.2c-0.1,0.4,-0.2,0.8,-0.3,1.2c3.9,-1.1,8.5,-0.2,12,2.4c0.1,-0.4,0.2,-0.7,0.2,-1.1c-3.5,-2.5,-8,-3.4,-11.9,-2.5Z" class="g2_58" />
<path fill-rule="evenodd" d="M109.5,890.6l7.2,-18.5l1.4,0l0,3.7l-2.8,7.4l2.8,0l0,2.4l-3.8,0l-1.9,5l-2.9,0Zm73.4,-0.2l0,-3.2c1.4,0.6,2.5,1,3.2,1.1c0.7,0.1,1.4,0.2,2,0.2c1.1,0,1.9,-0.3,2.4,-0.8c0.5,-0.4,0.8,-1,0.8,-1.7c0,-0.5,-0.1,-1,-0.5,-1.4c-0.2,-0.4,-1,-0.9,-2.1,-1.6l-1.3,-0.7c-1.8,-1,-3,-1.9,-3.6,-2.7c-0.7,-0.8,-1,-1.8,-1,-2.9c0,-1.4,0.6,-2.6,1.7,-3.6c1,-1,2.5,-1.5,4.5,-1.5c1.5,0,3.2,0.2,5.1,0.6l0,3c-1.9,-0.7,-3.5,-1.1,-4.6,-1.1c-0.9,0,-1.6,0.2,-2.1,0.6c-0.5,0.4,-0.7,0.9,-0.7,1.5c0,0.4,0.1,0.8,0.4,1.2c0.3,0.4,1,0.9,2.2,1.5l1.3,0.8c2,1.1,3.4,2.1,3.9,3c0.6,0.8,0.9,1.8,0.9,2.8c0,1.6,-0.6,2.8,-1.8,3.9c-1.1,1.1,-3,1.6,-5.5,1.6c-1.5,0,-3.2,-0.2,-5.2,-0.6Zm-9.3,0.2l0,-18.5l3.8,0l0,18.5l-3.8,0Zm-14.9,0l-6.9,-18.5l4.2,0l5.3,14.3l5.1,-14.3l2.7,0l-6.6,18.5l-3.8,0Zm-26.4,0l0,-18.5l3.4,0l8.5,12.6l0,-12.6l3.1,0l0,18.5l-3.4,0l-8.5,-12.7l0,12.7l-3.1,0Zm74.6,-18.5l0,3.7l-2.8,7.4l2.8,0l0,2.4l-3.8,0l-1.9,5l-2.8,0l7.2,-18.5l1.3,0Zm-88.8,0l2.5,0l7.2,18.5l-3.9,0l-1.9,-5l-3.9,0l0,-2.4l2.9,0l-2.9,-7.4l0,-3.7Zm88.8,13.5l0,-2.4l2.9,0l-2.9,-7.4l0,-3.7l2.6,0l7.1,18.5l-3.9,0l-1.9,-5l-3.9,0Z" class="g7_58" />
<path d="M204.1,883.2l0,0.3l6.2,0l-3.4,-8.6l-3.3,8.6l0.5,0l0,-0.3l0.2,0.1l2.6,-6.7l2.5,6.3l-5.3,0l0,0.3l0.2,0.1l-0.2,-0.1Zm-5.7,7.4l0.2,0.1l7.2,-18.3l3.4,0l7,17.9l-3.3,0l-1.9,-5l-8.1,0l-1.9,5l-2.6,0l0,0.3l0.2,0.1l-0.2,-0.1l0,0.3l3,0l1.9,-4.9l7.3,0l1.9,4.9l4.5,0l-7.3,-19.1l-4.4,0l-7.4,19.1l0.5,0l0,-0.3Zm-15.5,-0.2l0.3,0l0,-3.2l-0.3,0l-0.1,0.3c1.4,0.6,2.5,1,3.3,1.1c0.7,0.1,1.4,0.2,2,0.2c1.1,0,2,-0.3,2.6,-0.8c0.6,-0.5,0.9,-1.2,0.9,-2c0,-0.5,-0.2,-1.1,-0.5,-1.6l-0.3,0.2l0.3,-0.2c-0.4,-0.5,-1.1,-1,-2.3,-1.6l-0.1,0.2l0.1,-0.2l-1.2,-0.7c-1.8,-1,-3,-1.9,-3.5,-2.7l-0.1,0c-0.6,-0.8,-0.9,-1.7,-0.9,-2.7c0,-1.3,0.5,-2.4,1.6,-3.4c0.9,-0.9,2.4,-1.4,4.3,-1.4c1.5,0,3.1,0.2,5,0.6l0.1,-0.3l-0.4,0l0,3l0.4,0l0.1,-0.3c-2,-0.7,-3.5,-1.1,-4.7,-1.1c-1,0,-1.7,0.2,-2.3,0.7c-0.6,0.5,-0.8,1.1,-0.8,1.7c0,0.5,0.1,1,0.4,1.4l0.1,0c0.3,0.4,1.1,1,2.2,1.6l1.4,0.7l0.1,-0.2l-0.1,0.2c2,1.2,3.3,2.2,3.8,2.9c0.5,0.8,0.8,1.7,0.8,2.7c0,1.5,-0.6,2.6,-1.7,3.7c-1.1,1,-2.8,1.5,-5.3,1.5c-1.4,0,-3.2,-0.2,-5.2,-0.6l0,0.3l0.3,0l-0.3,0l-0.1,0.3c2,0.4,3.8,0.6,5.3,0.6c2.5,0,4.5,-0.5,5.7,-1.7l-0.2,-0.2l0.2,0.2c1.2,-1.1,1.9,-2.5,1.9,-4.1c0,-1.1,-0.3,-2.1,-0.9,-3l-0.3,0.2l0.3,-0.2c-0.6,-0.9,-2,-1.9,-4,-3.1l-1.4,-0.7l-0.1,0.2l0.1,-0.2c-1.1,-0.6,-1.8,-1.2,-2.1,-1.5l-0.2,0.2l0.2,-0.2c-0.2,-0.3,-0.3,-0.6,-0.3,-1c0,-0.5,0.1,-0.9,0.6,-1.2c0.4,-0.4,1,-0.6,1.9,-0.6c1,0,2.6,0.4,4.4,1.1l0.5,0.1l0,-3.6l-0.3,-0.1c-1.9,-0.4,-3.5,-0.6,-5.1,-0.6c-2,0,-3.6,0.5,-4.8,1.6l0.3,0.2l-0.3,-0.2c-1.1,1,-1.7,2.3,-1.7,3.8c0,1.1,0.4,2.2,1.1,3.1l0.2,-0.2l-0.2,0.2c0.6,0.9,1.9,1.8,3.7,2.8l1.2,0.7c1.2,0.6,1.9,1.2,2.1,1.5c0.3,0.3,0.4,0.8,0.4,1.2c0,0.6,-0.2,1.1,-0.7,1.5c-0.4,0.4,-1.2,0.7,-2.2,0.7c-0.6,0,-1.3,-0.1,-1.9,-0.2l-0.1,0.3l0.1,-0.3c-0.7,-0.1,-1.8,-0.5,-3.2,-1l-0.4,-0.2l0,3.9l0.2,0l0.1,-0.3Zm-9.3,0.2l0.3,0l0,-18.2l3.2,0l0,17.9l-3.5,0l0,0.3l0.3,0l-0.3,0l0,0.3l4.1,0l0,-19.1l-4.4,0l0,19.1l0.3,0l0,-0.3Zm-14.9,0l0.3,-0.1l-6.7,-18.1l3.5,0l5.5,14.9l5.3,-14.9l2.1,0l-6.4,17.9l-3.6,0l0,0.3l0.3,-0.1l-0.3,0.1l0,0.3l4,0l6.9,-19.1l-3.4,0l-4.9,13.7l-5.1,-13.7l-4.8,0l7.1,19.1l0.2,0l0,-0.3Zm-26.4,0l0.3,0l0,-18.2l3,0l8.9,13.3l0,-13.3l2.5,0l0,17.9l-3,0l-8.9,-13.4l0,13.4l-2.8,0l0,0.3l0.3,0l-0.3,0l0,0.3l3.4,0l0,-12l8,12l3.9,0l0,-19.1l-3.7,0l0,11.9l-8,-11.9l-3.9,0l0,19.1l0.3,0l0,-0.3Zm-17,-7.4l0,0.3l6.2,0l-3.4,-8.6l-3.3,8.6l0.5,0l0,-0.3l0.2,0.1l2.6,-6.7l2.5,6.3l-5.3,0l0,0.3l0.2,0.1l-0.2,-0.1Zm-5.8,7.4l0.3,0.1L117,872.4l3.4,0l7,17.9l-3.3,0l-1.9,-5l-8.1,0l-2,5l-2.6,0l0,0.3l0.3,0.1l-0.3,-0.1l0,0.3l3.1,0l1.9,-4.9l7.2,0l2,4.9l4.5,0l-7.3,-19.1l-4.4,0l-7.4,19.1l0.4,0l0,-0.3Z" class="g7_58" />
<path fill-rule="evenodd" d="M109.6,906l3.3,-8.5l0.5,0l0,1.6l-1.4,3.6l1.4,0l0,0.9l-1.8,0l-0.9,2.4l-1.1,0Zm10.9,1.5l0,0.8l-0.3,0c-0.2,0,-0.4,0,-0.6,0c-0.3,-0.1,-0.5,-0.1,-0.7,-0.1c-0.2,0,-0.5,-0.1,-0.7,-0.2l0.1,-1c0.6,0.3,1.3,0.5,1.9,0.5l0.3,0Zm0,-7.9l0,0.9c-0.5,0,-0.9,0.1,-1.2,0.5c-0.3,0.5,-0.5,1,-0.5,1.8c0,0.6,0.1,1.1,0.3,1.5c0.3,0.3,0.7,0.6,1.2,0.6l0.2,-0.1l0,1l-0.4,0c-0.9,0,-1.5,-0.3,-1.9,-0.9c-0.4,-0.6,-0.6,-1.3,-0.6,-2.1c0,-0.6,0.1,-1.1,0.4,-1.7c0.2,-0.5,0.5,-0.8,0.9,-1.1c0.4,-0.3,0.9,-0.4,1.4,-0.4l0.2,0Zm-7.1,-2.1l0.8,0l3.3,8.5l-1.3,0l-0.9,-2.4l-1.9,0l0,-0.9l1.5,0l-1.5,-3.6l0,-1.6Zm7.1,10.8l0,-0.8c0.6,-0.1,1,-0.2,1.2,-0.6c0.3,-0.3,0.4,-0.8,0.4,-1.4l0,-1c-0.1,0.4,-0.4,0.7,-0.7,0.9c-0.3,0.2,-0.6,0.4,-0.9,0.4l0,-1c0.2,0,0.5,-0.1,0.7,-0.2c0.4,-0.2,0.7,-0.5,0.9,-0.8l0,-2.6c-0.2,-0.2,-0.5,-0.4,-0.7,-0.6c-0.3,-0.1,-0.6,-0.1,-0.9,-0.1l0,-0.9c0.1,0,0.3,0,0.5,0.1c0.2,0,0.4,0.1,0.6,0.2c0.1,0.1,0.3,0.3,0.5,0.6l0,-0.8l1.2,0l0,4.6c0,1.3,-0.1,2.1,-0.3,2.6c-0.3,0.5,-0.6,0.8,-1.1,1.1c-0.4,0.2,-0.9,0.3,-1.4,0.3Zm6.4,-8.7l0,0.9c-0.4,0,-0.7,0.1,-0.9,0.4c-0.3,0.3,-0.4,0.7,-0.5,1.3l1.4,0l0,0.8l-1.4,0c0,0.6,0.2,1,0.4,1.3c0.1,0.3,0.4,0.6,0.6,0.7l0.4,0.2l0,0.9c-0.7,-0.1,-1.3,-0.4,-1.7,-1c-0.6,-0.6,-0.9,-1.4,-0.9,-2.3c0,-0.6,0.1,-1.1,0.4,-1.7c0.2,-0.5,0.6,-0.9,1,-1.1c0.3,-0.3,0.7,-0.4,1.2,-0.4Zm0,-2.7l0,0.8l-0.7,0.9l-1,0l1.3,-1.7l0.4,0Zm15.9,1.7l0,-1.1l1.1,0l0,1.1l-1.1,0Zm0,7.4l0,-6.3l1.1,0l0,6.3l-1.1,0Zm-1.1,-0.2c-0.7,0.2,-1.4,0.3,-1.9,0.3c-0.5,0,-1,-0.2,-1.5,-0.4c-0.4,-0.4,-0.8,-0.8,-1,-1.2c-0.3,-0.5,-0.4,-1.1,-0.4,-1.7c0,-0.9,0.3,-1.7,0.8,-2.3c0.5,-0.6,1.2,-0.9,2.3,-0.9c0.5,0,1,0.1,1.6,0.2l0,0.9c-0.6,-0.2,-1.1,-0.2,-1.5,-0.2c-0.7,0,-1.1,0.2,-1.4,0.7c-0.3,0.4,-0.5,1,-0.5,1.7c0,0.6,0.2,1.2,0.5,1.6c0.4,0.5,0.8,0.7,1.4,0.7c0.5,0,1.1,-0.1,1.6,-0.4l0,1Zm-11,0.2l0,-6.3l1.2,0l0,1.2c0.2,-0.4,0.6,-0.7,1,-0.9c0.3,-0.3,0.7,-0.4,1.1,-0.4c0.6,0,1,0.2,1.3,0.5c0.4,0.4,0.5,0.8,0.5,1.4l0,4.5l-1.1,0l0,-4.1c0,-0.5,-0.1,-0.8,-0.1,-0.9l-0.3,-0.3l-0.5,-0.1c-0.2,0,-0.6,0.1,-0.9,0.2c-0.3,0.2,-0.7,0.6,-1,1.2l0,4l-1.2,0Zm-3.8,-8.3l0,-0.8l0.9,0l1.3,1.7l-1,0l-1,-1.1l-0.2,0.2Zm0,5.3l0,-0.8l1.4,0c0,-0.7,-0.1,-1.1,-0.3,-1.3c-0.3,-0.3,-0.6,-0.4,-1,-0.4l-0.1,0l0,-0.9l0.2,0c0.7,0,1.3,0.3,1.7,0.8c0.4,0.5,0.7,1.3,0.7,2.3l0,0.3l-2.6,0Zm0,3.1l0,-0.9c0.3,0,0.5,0.1,0.8,0.1c0.2,0,0.5,-0.1,0.7,-0.1c0.2,0,0.6,-0.2,1,-0.3l0,0.9c-0.7,0.2,-1.4,0.3,-1.9,0.3c-0.2,0,-0.4,0,-0.6,0Zm20.5,-3.7l0,0.6c-0.2,0.1,-0.4,0.2,-0.6,0.3c-0.4,0.2,-0.6,0.5,-0.6,0.9c0,0.3,0.1,0.5,0.3,0.7c0.2,0.2,0.4,0.3,0.7,0.3l0.2,0l0,0.8c-0.2,0.1,-0.4,0.1,-0.5,0.1c-0.5,0,-0.9,-0.2,-1.3,-0.4c-0.4,-0.3,-0.5,-0.8,-0.5,-1.3c0,-0.6,0.2,-1.1,0.8,-1.5c0.3,-0.3,0.8,-0.5,1.5,-0.5Zm0,-2.8l0,0.9c-0.5,0,-1.2,0.1,-1.8,0.5l0,-1c0.6,-0.2,1.3,-0.4,1.8,-0.4Zm7.8,6.4l0,-8.5l1.1,0l4.3,6.5l0,-6.5l1,0l0,8.5l-1.1,0l-4.4,-6.6l0,6.6l-0.9,0Zm-7.8,0l0,-0.8c0.2,-0.1,0.4,-0.1,0.5,-0.2c0.3,-0.1,0.5,-0.2,0.8,-0.4l0,-1.7l-0.4,0c-0.3,0,-0.6,0,-0.9,0.1l0,-0.6c0.3,-0.1,0.6,-0.1,1,-0.1l0.3,0l0,-0.8c0,-0.3,-0.1,-0.5,-0.2,-0.6c0,-0.2,-0.1,-0.3,-0.3,-0.4c-0.2,0,-0.4,0,-0.7,0l-0.1,0l0,-0.9l0.4,0c0.3,0,0.7,0,1,0.2c0.3,0.1,0.6,0.3,0.7,0.5c0.2,0.3,0.3,0.7,0.3,1.2l0,2.9c0,0.3,0.1,0.5,0.1,0.6l0.2,0.2l0.3,0.1l0.2,0l0.1,0.6c-0.3,0.1,-0.5,0.2,-0.8,0.2c-0.3,0,-0.5,-0.1,-0.6,-0.2c-0.2,-0.1,-0.4,-0.4,-0.4,-0.7c-0.4,0.3,-0.7,0.5,-1,0.6c-0.2,0.1,-0.4,0.2,-0.5,0.2Zm17.7,-3.6l0,0.6c-0.3,0.1,-0.5,0.2,-0.7,0.3c-0.4,0.2,-0.6,0.5,-0.6,0.9c0,0.3,0.1,0.5,0.3,0.7c0.2,0.2,0.5,0.3,0.7,0.3l0.3,0l0,0.8c-0.2,0.1,-0.4,0.1,-0.6,0.1c-0.4,0,-0.9,-0.2,-1.2,-0.4c-0.4,-0.3,-0.6,-0.8,-0.6,-1.3c0,-0.6,0.2,-1.1,0.8,-1.5c0.3,-0.3,0.9,-0.5,1.6,-0.5Zm0,-2.8l0,0.9c-0.6,0,-1.2,0.1,-1.9,0.5l0,-1c0.6,-0.2,1.3,-0.4,1.9,-0.4Zm9.4,-1l0,-1.1l1.1,0l0,1.1l-1.1,0Zm0,7.4l0,-6.3l1.1,0l0,6.3l-1.1,0Zm-1.1,-0.2c-0.8,0.2,-1.4,0.3,-1.9,0.3c-0.5,0,-1,-0.2,-1.5,-0.4c-0.5,-0.4,-0.8,-0.8,-1,-1.2c-0.3,-0.5,-0.4,-1.1,-0.4,-1.7c0,-0.9,0.2,-1.7,0.8,-2.3c0.5,-0.6,1.2,-0.9,2.3,-0.9c0.5,0,1,0.1,1.6,0.2l0,0.9c-0.6,-0.2,-1.2,-0.2,-1.5,-0.2c-0.7,0,-1.2,0.2,-1.5,0.7c-0.3,0.4,-0.4,1,-0.4,1.7c0,0.6,0.2,1.2,0.5,1.6c0.4,0.5,0.8,0.7,1.4,0.7c0.5,0,1,-0.1,1.6,-0.4l0,1Zm-8.3,0.2l0,-0.8c0.1,-0.1,0.3,-0.1,0.5,-0.2c0.2,-0.1,0.5,-0.2,0.7,-0.4l0,-1.7l-0.4,0c-0.3,0,-0.6,0,-0.8,0.1l0,-0.6c0.2,-0.1,0.6,-0.1,1,-0.1l0.2,0l0,-0.8c0,-0.3,0,-0.5,-0.1,-0.6c-0.1,-0.2,-0.2,-0.3,-0.4,-0.4c-0.1,0,-0.4,0,-0.6,0l-0.1,0l0,-0.9l0.3,0c0.3,0,0.7,0,1,0.2c0.3,0.1,0.6,0.3,0.8,0.5c0.1,0.3,0.2,0.7,0.2,1.2l0,2.9c0,0.3,0.1,0.5,0.1,0.6l0.2,0.2l0.4,0.1l0.1,0l0.1,0.6c-0.2,0.1,-0.5,0.2,-0.8,0.2c-0.2,0,-0.4,-0.1,-0.6,-0.2c-0.2,-0.1,-0.3,-0.4,-0.4,-0.7c-0.3,0.3,-0.7,0.5,-1,0.6l-0.4,0.2Zm14.6,-6.4l0,0.9c-0.5,0,-1,0.1,-1.3,0.6c-0.3,0.4,-0.4,1,-0.4,1.8c0,0.7,0.1,1.3,0.4,1.7c0.3,0.4,0.8,0.7,1.3,0.7l0,0.8c-0.5,0,-1,-0.1,-1.5,-0.3c-0.4,-0.3,-0.8,-0.7,-1,-1.2c-0.3,-0.5,-0.4,-1.1,-0.4,-1.7c0,-0.6,0.1,-1.2,0.3,-1.7c0.2,-0.6,0.6,-0.9,1.1,-1.2c0.4,-0.3,0.9,-0.4,1.5,-0.4Zm4.2,6.4l0,-6.3l1.1,0l0,1.2c0.3,-0.4,0.6,-0.7,1,-0.9c0.4,-0.3,0.8,-0.4,1.2,-0.4c0.5,0,0.9,0.2,1.2,0.5c0.4,0.4,0.5,0.8,0.5,1.4l0,4.5l-1.1,0l0,-4.1c0,-0.5,0,-0.8,-0.1,-0.9l-0.3,-0.3c-0.1,-0.1,-0.3,-0.1,-0.5,-0.1c-0.2,0,-0.5,0.1,-0.9,0.2c-0.3,0.2,-0.6,0.6,-1,1.2l0,4l-1.1,0Zm-4.2,0.1l0,-0.8c0.6,0,1,-0.3,1.4,-0.7c0.3,-0.4,0.4,-1,0.4,-1.7c0,-0.8,-0.1,-1.4,-0.4,-1.8c-0.4,-0.5,-0.8,-0.6,-1.4,-0.6l0,-0.9c0.6,0,1.1,0.1,1.6,0.4c0.4,0.2,0.8,0.6,1,1.1c0.3,0.5,0.4,1.1,0.4,1.8c0,0.5,-0.1,1.1,-0.3,1.6c-0.3,0.6,-0.6,0.9,-1.1,1.2c-0.4,0.3,-0.9,0.4,-1.6,0.4Zm12.7,-3.7l0,0.6c-0.2,0.1,-0.5,0.2,-0.7,0.3c-0.4,0.2,-0.6,0.5,-0.6,0.9c0,0.3,0.1,0.5,0.3,0.7c0.2,0.2,0.5,0.3,0.8,0.3l0.2,0l0,0.8c-0.2,0.1,-0.4,0.1,-0.6,0.1c-0.4,0,-0.8,-0.2,-1.2,-0.4c-0.4,-0.3,-0.6,-0.8,-0.6,-1.3c0,-0.6,0.2,-1.1,0.8,-1.5c0.4,-0.3,0.9,-0.5,1.6,-0.5Zm0,-2.8l0,0.9c-0.6,0,-1.2,0.1,-1.9,0.5l0,-1c0.7,-0.2,1.3,-0.4,1.9,-0.4Zm4,6.4l0,-9.1l1.1,0l0,9.1l-1.1,0Zm-4,0l0,-0.8c0.2,-0.1,0.3,-0.1,0.5,-0.2c0.2,-0.1,0.5,-0.2,0.7,-0.4l0,-1.7l-0.4,0c-0.3,0,-0.6,0,-0.8,0.1l0,-0.6c0.3,-0.1,0.6,-0.1,1,-0.1l0.2,0l0,-0.8c0,-0.3,0,-0.5,-0.1,-0.6c-0.1,-0.2,-0.2,-0.3,-0.4,-0.4c-0.1,0,-0.4,0,-0.6,0l-0.1,0l0,-0.9l0.3,0c0.4,0,0.7,0,1,0.2c0.4,0.1,0.6,0.3,0.8,0.5c0.1,0.3,0.2,0.7,0.2,1.2l0,2.9c0,0.3,0.1,0.5,0.1,0.6l0.2,0.2l0.4,0.1l0.1,0l0.1,0.6c-0.2,0.1,-0.5,0.2,-0.8,0.2c-0.2,0,-0.4,-0.1,-0.6,-0.2c-0.2,-0.1,-0.3,-0.4,-0.4,-0.7c-0.3,0.3,-0.7,0.5,-1,0.6l-0.4,0.2Zm12.8,-6.4l0,0.9c-0.6,0,-1,0.2,-1.2,0.6c-0.3,0.5,-0.4,1.1,-0.4,1.8c0,0.7,0.1,1.2,0.4,1.6c0.2,0.4,0.6,0.6,1.1,0.6l0.1,0l0,1c-0.1,0,-0.2,0,-0.4,0c-0.7,0,-1.3,-0.3,-1.8,-0.8c-0.4,-0.6,-0.6,-1.4,-0.6,-2.3c0,-1,0.3,-1.8,0.7,-2.4c0.5,-0.7,1.1,-1,2,-1l0.1,0Zm0,6.5l0,-1c0.3,0,0.5,-0.1,0.8,-0.2c0.3,-0.2,0.6,-0.5,0.9,-0.8l0,-2.9c-0.4,-0.3,-0.7,-0.5,-0.9,-0.6c-0.3,-0.1,-0.5,-0.1,-0.8,-0.1l0,-0.9c0.2,0,0.4,0,0.5,0.1c0.3,0,0.4,0.1,0.6,0.2c0.2,0.1,0.4,0.3,0.6,0.6l0,-3.6l1.1,0l0,9.1l-1.1,0l0,-1.2c-0.3,0.4,-0.5,0.8,-0.9,1c-0.2,0.1,-0.5,0.2,-0.8,0.3Zm6.6,-6.5l0,0.9c-0.4,0,-0.8,0.1,-1,0.4c-0.2,0.3,-0.4,0.7,-0.4,1.3l1.4,0l0,0.8l-1.5,0c0.1,0.6,0.2,1,0.4,1.3c0.2,0.3,0.4,0.6,0.7,0.7l0.4,0.2l0,0.9c-0.8,-0.1,-1.4,-0.4,-1.8,-1c-0.5,-0.6,-0.8,-1.4,-0.8,-2.3c0,-0.6,0.1,-1.1,0.3,-1.7c0.3,-0.5,0.6,-0.9,1,-1.1c0.4,-0.3,0.8,-0.4,1.3,-0.4Zm14.5,-1l0,-1.1l1.2,0l0,1.1l-1.2,0Zm0,7.4l0,-6.3l1.2,0l0,6.3l-1.2,0Zm-4.7,0l-3.2,-8.5l1.2,0l2.6,6.9l2.6,-6.9l1,0l-3.1,8.5l-1.1,0Zm-9.8,-3l0,-0.8l1.4,0c0,-0.7,-0.1,-1.1,-0.4,-1.3c-0.2,-0.3,-0.5,-0.4,-0.9,-0.4l-0.1,0l0,-0.9l0.1,0c0.8,0,1.4,0.3,1.8,0.8c0.4,0.5,0.6,1.3,0.6,2.3l0,0.3l-2.5,0Zm0,3.1l0,-0.9c0.2,0,0.5,0.1,0.7,0.1c0.3,0,0.5,-0.1,0.7,-0.1c0.3,0,0.6,-0.2,1.1,-0.3l0,0.9c-0.8,0.2,-1.4,0.3,-2,0.3c-0.2,0,-0.4,0,-0.5,0Zm19.7,1.4l0,0.8l-0.3,0c-0.1,0,-0.4,0,-0.6,0c-0.3,-0.1,-0.5,-0.1,-0.7,-0.1c-0.2,0,-0.4,-0.1,-0.8,-0.2l0.2,-1c0.7,0.3,1.3,0.5,1.9,0.5l0.3,0Zm0,-7.9l0,0.9c-0.5,0,-0.9,0.1,-1.2,0.5c-0.3,0.5,-0.5,1,-0.5,1.8c0,0.6,0.2,1.1,0.4,1.5c0.2,0.3,0.6,0.6,1.1,0.6l0.2,-0.1l0,1l-0.4,0c-0.9,0,-1.5,-0.3,-1.9,-0.9c-0.4,-0.6,-0.6,-1.3,-0.6,-2.1c0,-0.6,0.1,-1.1,0.4,-1.7c0.2,-0.5,0.6,-0.8,1,-1.1c0.4,-0.3,0.8,-0.4,1.4,-0.4l0.1,0Zm7.1,6.4l0,-9.1l1.1,0l0,9.1l-1.1,0Zm-2.7,-7.4l0,-1.1l1.1,0l0,1.1l-1.1,0Zm0,7.4l0,-6.3l1.1,0l0,6.3l-1.1,0Zm-4.4,2.3l0,-0.8c0.6,-0.1,1,-0.2,1.2,-0.6c0.3,-0.3,0.5,-0.8,0.5,-1.4l0,-1c-0.2,0.4,-0.5,0.7,-0.8,0.9c-0.3,0.2,-0.6,0.4,-0.9,0.4l0,-1c0.3,0,0.5,-0.1,0.8,-0.2c0.3,-0.2,0.6,-0.5,0.9,-0.8l0,-2.6c-0.3,-0.2,-0.6,-0.4,-0.8,-0.6c-0.3,-0.1,-0.6,-0.1,-0.9,-0.1l0,-0.9c0.2,0,0.4,0,0.5,0.1c0.2,0,0.4,0.1,0.6,0.2c0.2,0.1,0.4,0.3,0.6,0.6l0,-0.8l1.1,0l0,4.6c0,1.3,-0.1,2.1,-0.4,2.6c-0.1,0.5,-0.5,0.8,-1,1.1c-0.4,0.2,-0.9,0.3,-1.4,0.3Zm11.7,-5.9l0,0.6c-0.2,0.1,-0.4,0.2,-0.6,0.3c-0.4,0.2,-0.6,0.5,-0.6,0.9c0,0.3,0.1,0.5,0.3,0.7c0.2,0.2,0.4,0.3,0.7,0.3l0.2,0l0,0.8c-0.2,0.1,-0.3,0.1,-0.5,0.1c-0.5,0,-0.9,-0.2,-1.3,-0.4c-0.3,-0.3,-0.5,-0.8,-0.5,-1.3c0,-0.6,0.3,-1.1,0.7,-1.5c0.5,-0.3,1,-0.5,1.6,-0.5Zm0,-2.8l0,0.9c-0.5,0,-1.1,0.1,-1.8,0.5l0,-1c0.7,-0.2,1.2,-0.4,1.8,-0.4Zm0,-2.7l0,0.8l-0.6,0.9l-1,0l1.2,-1.7l0.4,0Zm16.2,1.7l0,-1.1l1.1,0l0,1.1l-1.1,0Zm0,7.4l0,-6.3l1.1,0l0,6.3l-1.1,0Zm-1.2,-0.2c-0.7,0.2,-1.3,0.3,-1.9,0.3c-0.5,0,-1,-0.2,-1.5,-0.4c-0.4,-0.4,-0.8,-0.8,-1,-1.2c-0.2,-0.5,-0.3,-1.1,-0.3,-1.7c0,-0.9,0.2,-1.7,0.7,-2.3c0.5,-0.6,1.3,-0.9,2.3,-0.9c0.5,0,1,0.1,1.6,0.2l0,0.9c-0.6,-0.2,-1.1,-0.2,-1.5,-0.2c-0.6,0,-1.1,0.2,-1.4,0.7c-0.3,0.4,-0.5,1,-0.5,1.7c0,0.6,0.2,1.2,0.5,1.6c0.4,0.5,0.9,0.7,1.4,0.7c0.5,0,1.1,-0.1,1.6,-0.4l0,1ZM247.3,906l0,-6.3l1.1,0l0,1.2c0.3,-0.4,0.6,-0.7,1,-0.9c0.4,-0.3,0.8,-0.4,1.2,-0.4c0.5,0,0.9,0.2,1.3,0.5c0.3,0.4,0.4,0.8,0.4,1.4l0,4.5l-1.1,0l0,-4.1c0,-0.5,0,-0.8,-0.1,-0.9l-0.3,-0.3c-0.1,-0.1,-0.3,-0.1,-0.5,-0.1c-0.2,0,-0.5,0.1,-0.9,0.2c-0.3,0.2,-0.6,0.6,-1,1.2l0,4l-1.1,0Zm-4.1,-8.3l0,-0.8l0.9,0l1.3,1.7l-1,0l-0.9,-1.1l-0.3,0.2Zm0,8.3l0,-0.8c0.2,-0.1,0.3,-0.1,0.5,-0.2c0.3,-0.1,0.5,-0.2,0.8,-0.4l0,-1.7l-0.4,0c-0.3,0,-0.6,0,-0.9,0.1l0,-0.6c0.3,-0.1,0.7,-0.1,1,-0.1l0.3,0l0,-0.8c0,-0.3,0,-0.5,-0.1,-0.6c-0.1,-0.2,-0.2,-0.3,-0.4,-0.4c-0.2,0,-0.4,0,-0.7,0l-0.1,0l0,-0.9l0.4,0c0.4,0,0.7,0,1,0.2c0.3,0.1,0.5,0.3,0.8,0.5c0.1,0.3,0.2,0.7,0.2,1.2l0,2.9c0,0.3,0,0.5,0.1,0.6l0.2,0.2l0.3,0.1l0.2,0l0.1,0.6c-0.2,0.1,-0.5,0.2,-0.8,0.2c-0.2,0,-0.4,-0.1,-0.6,-0.2c-0.2,-0.1,-0.4,-0.4,-0.5,-0.7c-0.3,0.3,-0.6,0.5,-1,0.6l-0.4,0.2ZM264,902.4l0,0.6c-0.3,0.1,-0.5,0.2,-0.7,0.3c-0.4,0.2,-0.6,0.5,-0.6,0.9c0,0.3,0.1,0.5,0.3,0.7c0.2,0.2,0.4,0.3,0.7,0.3l0.3,0l0,0.8c-0.3,0.1,-0.4,0.1,-0.6,0.1c-0.5,0,-0.9,-0.2,-1.2,-0.4c-0.4,-0.3,-0.6,-0.8,-0.6,-1.3c0,-0.6,0.2,-1.1,0.8,-1.5c0.4,-0.3,0.9,-0.5,1.6,-0.5Zm0,-2.8l0,0.9c-0.6,0,-1.2,0.1,-1.9,0.5l0,-1c0.7,-0.2,1.3,-0.4,1.9,-0.4Zm7.1,6.2l0,-1.2c0.7,0.3,1.2,0.5,1.5,0.6c0.3,0.1,0.7,0.1,0.9,0.1c0.5,0,0.9,-0.2,1.2,-0.4c0.2,-0.3,0.4,-0.6,0.4,-1c0,-0.3,-0.1,-0.5,-0.2,-0.8c-0.2,-0.2,-0.6,-0.5,-1.1,-0.8L273.2,902c-0.8,-0.5,-1.3,-0.9,-1.6,-1.3c-0.3,-0.3,-0.4,-0.7,-0.4,-1.2c0,-0.4,0.1,-0.8,0.3,-1.1c0.2,-0.3,0.5,-0.6,0.9,-0.8c0.3,-0.2,0.8,-0.3,1.3,-0.3c0.7,0,1.4,0.1,2.1,0.3l0,1.1c-0.6,-0.2,-1,-0.4,-1.3,-0.5c-0.2,0,-0.5,0,-0.7,0c-0.5,0,-0.9,0.1,-1.1,0.4c-0.3,0.2,-0.3,0.5,-0.3,0.7c0,0.2,0,0.4,0.1,0.6c0.1,0.2,0.3,0.3,0.4,0.5c0.3,0.1,0.5,0.3,0.9,0.5l0.5,0.3c0.8,0.5,1.4,0.9,1.6,1.3c0.3,0.3,0.4,0.7,0.4,1.2c0,0.7,-0.2,1.2,-0.7,1.7c-0.5,0.5,-1.3,0.7,-2.3,0.7c-0.3,0,-0.5,0,-0.9,0c-0.2,0,-0.7,-0.1,-1.3,-0.3ZM264,906l0,-0.8c0.1,-0.1,0.3,-0.1,0.5,-0.2c0.2,-0.1,0.5,-0.2,0.7,-0.4l0,-1.7l-0.4,0c-0.3,0,-0.6,0,-0.8,0.1l0,-0.6c0.2,-0.1,0.6,-0.1,0.9,-0.1l0.3,0l0,-0.8c0,-0.3,0,-0.5,-0.1,-0.6c-0.1,-0.2,-0.2,-0.3,-0.4,-0.4c-0.2,0,-0.4,0,-0.6,0l-0.1,0l0,-0.9l0.3,0c0.4,0,0.7,0,1,0.2c0.3,0.1,0.6,0.3,0.8,0.5c0.1,0.3,0.2,0.7,0.2,1.2l0,2.9c0,0.3,0.1,0.5,0.1,0.6l0.2,0.2l0.3,0.1l0.2,0l0.1,0.6c-0.2,0.1,-0.5,0.2,-0.8,0.2c-0.2,0,-0.4,-0.1,-0.6,-0.2c-0.2,-0.1,-0.3,-0.4,-0.4,-0.7c-0.4,0.3,-0.7,0.5,-1,0.6L264,906Zm15.2,-3.6l0,0.6c-0.2,0.1,-0.4,0.2,-0.6,0.3c-0.4,0.2,-0.6,0.5,-0.6,0.9c0,0.3,0.1,0.5,0.3,0.7c0.2,0.2,0.4,0.3,0.7,0.3l0.2,0l0,0.8c-0.1,0.1,-0.3,0.1,-0.5,0.1c-0.5,0,-0.9,-0.2,-1.3,-0.4c-0.3,-0.3,-0.5,-0.8,-0.5,-1.3c0,-0.6,0.3,-1.1,0.8,-1.5c0.4,-0.3,0.9,-0.5,1.5,-0.5Zm0,-2.8l0,0.9c-0.5,0,-1.1,0.1,-1.8,0.5l0,-1c0.7,-0.2,1.2,-0.4,1.8,-0.4Zm16.2,6.4c-0.3,0.1,-0.6,0.1,-0.9,0.1c-0.5,0,-1,-0.2,-1.3,-0.5c-0.3,-0.3,-0.5,-0.7,-0.5,-1.3l0,-3.7l-0.7,0l0,-0.9l0.7,0l0,-1.1l1.2,-0.1l0,1.2l1.6,0l0,0.9l-1.6,0l0,3.4c0,0.5,0.1,0.8,0.2,1c0.2,0.2,0.4,0.3,0.8,0.3c0.1,0,0.3,-0.1,0.5,-0.1l0,0.8Zm-5.5,-7.4l0,-1.1l1.1,0l0,1.1l-1.1,0Zm0,7.4l0,-6.3l1.1,0l0,6.3l-1.1,0Zm-6.6,0l0,-6.3l1.1,0l0,1.2c0.3,-0.4,0.6,-0.7,0.9,-0.9c0.4,-0.3,0.8,-0.4,1.2,-0.4c0.6,0,1,0.2,1.3,0.5c0.4,0.4,0.5,0.8,0.5,1.4l0,4.5l-1.1,0l0,-4.1c0,-0.5,0,-0.8,-0.1,-0.9l-0.3,-0.3c-0.2,-0.1,-0.3,-0.1,-0.5,-0.1c-0.3,0,-0.6,0.1,-0.9,0.2c-0.3,0.2,-0.6,0.6,-1,1.2l0,4l-1.1,0Zm-4.1,0l0,-0.8c0.2,-0.1,0.3,-0.1,0.5,-0.2c0.3,-0.1,0.5,-0.2,0.8,-0.4l0,-1.7l-0.4,0c-0.3,0,-0.6,0,-0.9,0.1l0,-0.6c0.3,-0.1,0.7,-0.1,1,-0.1l0.3,0l0,-0.8c0,-0.3,0,-0.5,-0.1,-0.6L280,900.5c-0.2,0,-0.4,0,-0.7,0l-0.1,0l0,-0.9l0.3,0c0.5,0,0.8,0,1.1,0.2c0.3,0.1,0.5,0.3,0.8,0.5c0.1,0.3,0.2,0.7,0.2,1.2l0,2.9c0,0.3,0,0.5,0.1,0.6l0.2,0.2l0.3,0.1l0.3,0l0,0.6c-0.2,0.1,-0.5,0.2,-0.8,0.2c-0.2,0,-0.4,-0.1,-0.6,-0.2c-0.2,-0.1,-0.4,-0.4,-0.5,-0.7c-0.3,0.3,-0.6,0.5,-1,0.6c-0.1,0.1,-0.2,0.2,-0.4,0.2Zm19.1,-3.6l0,0.6c-0.2,0.1,-0.5,0.2,-0.6,0.3c-0.4,0.2,-0.7,0.5,-0.7,0.9c0,0.3,0.1,0.5,0.3,0.7c0.2,0.2,0.5,0.3,0.7,0.3l0.3,0l0,0.8c-0.2,0.1,-0.4,0.1,-0.6,0.1c-0.4,0,-0.8,-0.2,-1.2,-0.4c-0.4,-0.3,-0.6,-0.8,-0.6,-1.3c0,-0.6,0.3,-1.1,0.8,-1.5c0.4,-0.3,0.9,-0.5,1.6,-0.5Zm0,-2.8l0,0.9c-0.6,0,-1.2,0.1,-1.9,0.5l0,-1c0.7,-0.2,1.3,-0.4,1.9,-0.4Zm0,-1.8l0,0.8l-0.6,0l0.6,-0.8Zm8.2,0.8l0,-1.1l1.1,0l0,1.1l-1.1,0Zm0,7.4l0,-6.3l1.1,0l0,6.3l-1.1,0Zm-4.2,0l0,-6.3l1.2,0l0,1.2c0.1,-0.4,0.4,-0.7,0.8,-0.9c0.3,-0.3,0.7,-0.4,1.1,-0.4l0.4,0l0,1.1c-0.3,-0.1,-0.4,-0.1,-0.6,-0.1c-0.3,0,-0.7,0.1,-0.9,0.3c-0.3,0.2,-0.6,0.6,-0.8,1l0,4.1l-1.2,0Zm-4,-7.4l0,-0.8l0.7,-0.9l1.2,0l-1.5,1.7l-0.4,0Zm0,7.4l0,-0.8c0.1,-0.1,0.3,-0.1,0.5,-0.2c0.2,-0.1,0.5,-0.2,0.7,-0.4l0,-1.7l-0.3,0c-0.4,0,-0.6,0,-0.9,0.1l0,-0.6c0.3,-0.1,0.6,-0.1,0.9,-0.1l0.3,0l0,-0.8c0,-0.3,0,-0.5,-0.1,-0.6c-0.1,-0.2,-0.2,-0.3,-0.4,-0.4c-0.2,0,-0.3,0,-0.6,0l-0.1,0l0,-0.9l0.3,0c0.4,0,0.7,0,1.1,0.2c0.3,0.1,0.5,0.3,0.7,0.5c0.2,0.3,0.3,0.7,0.3,1.2l0,2.9c0,0.3,0,0.5,0,0.6l0.3,0.2l0.2,0.1l0.3,0l0.1,0.6c-0.3,0.1,-0.6,0.2,-0.9,0.2c-0.2,0,-0.4,-0.1,-0.6,-0.2c-0.2,-0.1,-0.3,-0.4,-0.4,-0.7c-0.3,0.3,-0.7,0.5,-1,0.6l-0.4,0.2Zm12.8,-3.6l0,0.6c-0.2,0.1,-0.4,0.2,-0.6,0.3c-0.4,0.2,-0.6,0.5,-0.6,0.9c0,0.3,0.1,0.5,0.3,0.7c0.2,0.2,0.4,0.3,0.7,0.3l0.2,0l0,0.8c-0.2,0.1,-0.3,0.1,-0.5,0.1c-0.5,0,-0.9,-0.2,-1.3,-0.4c-0.4,-0.3,-0.5,-0.8,-0.5,-1.3c0,-0.6,0.2,-1.1,0.7,-1.5c0.4,-0.3,0.9,-0.5,1.6,-0.5Zm0,-2.8l0,0.9c-0.5,0,-1.2,0.1,-1.8,0.5l0,-1c0.6,-0.2,1.2,-0.4,1.8,-0.4Zm0,6.4l0,-0.8c0.2,-0.1,0.3,-0.1,0.5,-0.2c0.3,-0.1,0.5,-0.2,0.8,-0.4l0,-1.7l-0.4,0c-0.3,0,-0.6,0,-0.9,0.1l0,-0.6c0.3,-0.1,0.7,-0.1,1,-0.1l0.3,0l0,-0.8c0,-0.3,-0.1,-0.5,-0.2,-0.6c0,-0.2,-0.1,-0.3,-0.3,-0.4c-0.2,0,-0.4,0,-0.6,0l-0.2,0l0,-0.9l0.4,0c0.3,0,0.7,0,1,0.2c0.3,0.1,0.6,0.3,0.7,0.5c0.2,0.3,0.3,0.7,0.3,1.2l0,2.9c0,0.3,0,0.5,0.1,0.6l0.2,0.2l0.3,0.1l0.2,0l0.1,0.6c-0.2,0.1,-0.5,0.2,-0.8,0.2c-0.3,0,-0.4,-0.1,-0.6,-0.2c-0.3,-0.1,-0.4,-0.4,-0.4,-0.7c-0.4,0.3,-0.7,0.5,-1.1,0.6l-0.4,0.2Z" class="g7_58" />
<path fill-rule="evenodd" d="M80.7,866.8l-1.9,0l0,14.2l15.1,0l0,-2.1l-13.2,0l0,-12.1Z" class="g8_58" />
<path fill-rule="evenodd" d="M63.3,907.2l2,0l0,-14.4l-15.1,0l0,2.1l13.1,0l0,12.3Zm17,0.1l-1.9,0l0,-14.3l15.1,0l0,2.2l-13.2,0l0,12.1Z" class="g8_58" />
<path fill-rule="evenodd" d="M63.8,866.8l1.9,0l0,14.2l-15.1,0l0,-2.1l13.2,0l0,-12.1Z" class="g8_58" />
<image x="67" y="883" width="9" height="9" xlink:href="shade/9.png" />
<path fill-rule="evenodd" d="M61.1,886.8c-0.6,4.6,2.2,8.4,5.9,10.4c3.7,1.9,10.1,2.7,14.1,2.6c4,-0.2,8,-1.3,11.4,-3.7c1.7,-1.4,2.4,-3.3,3.1,-5l-0.5,-1.6c-0.7,3.1,-1,3.7,-2.4,5.2c-1.4,1.5,-4.1,2.8,-6.4,3.1c-5.2,0.7,-11,-1.3,-13.5,-2.3c-2.5,-1,-5.6,-2.9,-7.8,-4.5c-2.2,-1.5,-3.2,-2.6,-3.9,-4.2Z" class="g9_58" />
<path fill-rule="evenodd" d="M81,887.5c0.6,-4.5,-2.2,-8.3,-5.9,-10.3c-3.7,-2,-10.2,-2.8,-14.1,-2.6c-4,0.2,-8,1.3,-11.4,3.7c-1.8,1.3,-2.4,3.2,-3.1,4.9l0.5,1.6c0.6,-3,1,-3.6,2.4,-5.2c1.3,-1.5,4.1,-2.8,6.4,-3.1c5.2,-0.7,11,1.3,13.5,2.3c2.5,1,5.6,3,7.8,4.5c2.2,1.5,3.2,2.7,3.9,4.2Z" class="g9_58" />
<image x="528" y="873" width="35" height="37" xlink:href="shade/10.png" />
</svg>