<?xml version="1.0" encoding="UTF-8" standalone="no"?>
<!DOCTYPE svg PUBLIC "-//W3C//DTD SVG 1.1//EN"
"http://www.w3.org/Graphics/SVG/1.1/DTD/svg11.dtd">
<svg viewBox="0 0 649 952" version="1.1" xmlns="http://www.w3.org/2000/svg" xmlns:xlink="http://www.w3.org/1999/xlink">
<defs>
<style type="text/css"><![CDATA[
.g1_19{
fill: #0154A6;
}
.g2_19{
fill: #007C78;
}
.g3_19{
fill: none;
stroke: #0154A6;
stroke-width: 1.1458334;
stroke-linecap: butt;
stroke-linejoin: miter;
stroke-miterlimit: 4;
}
.g4_19{
fill: none;
stroke: #0154A6;
stroke-width: 1.1458334;
stroke-linecap: butt;
stroke-linejoin: miter;
stroke-miterlimit: 4;
stroke-dasharray: 4,2;
}
]]></style>
</defs>
<path d="M0,952.8l24.9,0l0,-896.5L0,56.3L0,952.8Z" class="g1_19" />
<path d="M0,56.3l24.9,0L24.9,0L0,0L0,56.3Z" class="g2_19" />
<path d="M76,743.7c0,0,-8.7,0,-8.7,8.6l0,102.8c0,0,0,8.7,8.7,8.7l498.3,0c0,0,8.7,0,8.7,-8.7l0,-102.8c0,0,0,-8.6,-8.7,-8.6L76,743.7Z" class="g3_19" />
<path d="M40.9,107l0,26" class="g3_19" />
<path d="M65,133.3l-24.4,0" class="g3_19" />
<path d="M40.9,85.9l0,18.2" class="g4_19" />
<path d="M67.1,799l-24.4,0" class="g3_19" />
<path d="M42.9,798.8l0,59.2" class="g3_19" />
<path d="M42.9,860.2l0,18.2" class="g4_19" />
</svg>