<?xml version="1.0" encoding="UTF-8" standalone="no"?>
<!DOCTYPE svg PUBLIC "-//W3C//DTD SVG 1.1//EN"
"http://www.w3.org/Graphics/SVG/1.1/DTD/svg11.dtd">
<svg viewBox="0 0 649 952" version="1.1" xmlns="http://www.w3.org/2000/svg" xmlns:xlink="http://www.w3.org/1999/xlink">
<defs>
<clipPath id="c0_57"><path d="M0,952.8L0,0L649.6,0l0,952.8Z" /></clipPath>
<clipPath id="c1_57"><path d="M0,188.9L0,34.3l137.9,0l0,154.6Z" /></clipPath>
<style type="text/css"><![CDATA[
.g1_57{
fill: #FFFFFF;
fill-opacity: 0.19999701;
}
.g2_57{
fill: none;
stroke: #007C78;
stroke-width: 2.2916667;
stroke-linecap: butt;
stroke-linejoin: miter;
stroke-miterlimit: 4;
stroke-opacity: 0.19999701;
}
.g3_57{
fill: #007C78;
}
]]></style>
</defs>
<path d="M86.3,186.8l-32,-19.7l0.1,-53l32,19.8Z" class="g1_57" />
<path d="M86.3,186.8l-32,-19.7l0.1,-53l32,19.8l-0.1,52.9Z" class="g2_57" />
<path d="M86.4,133.9l-32,-19.8l48.1,-7.6l32.1,19.7Z" class="g1_57" />
<path d="M86.4,133.9l-32,-19.8l48.1,-7.6l32.1,19.7l-48.2,7.7Z" class="g2_57" />
<path d="M134.6,126.2l-0.1,53l-48.2,7.6l0.1,-52.9Z" class="g1_57" />
<path d="M134.6,126.2l-0.1,53l-48.2,7.6l0.1,-52.9l48.2,-7.7Z" class="g2_57" />
<g clip-path="url(#c0_57)">
<path d="M8.5,175.8L-23.5,156l0.1,-52.9l32,19.7Z" class="g1_57" />
</g>
<g clip-path="url(#c1_57)">
<path d="M8.5,175.8L-23.5,156l0.1,-52.9l32,19.7l-0.1,53Z" class="g2_57" />
</g>
<g clip-path="url(#c0_57)">
<path d="M8.6,122.8l-32,-19.7L24.7,95.4l32.1,19.7Z" class="g1_57" />
</g>
<g clip-path="url(#c1_57)">
<path d="M8.6,122.8l-32,-19.7L24.7,95.4l32.1,19.7L8.6,122.8Z" class="g2_57" />
</g>
<path d="M56.8,115.1l-0.1,53L8.5,175.8l0.1,-53Z" class="g1_57" />
<path d="M56.8,115.1l-0.1,53L8.5,175.8l0.1,-53l48.2,-7.7Z" class="g2_57" />
<path d="M56.8,115.9L24.7,96.1l0.1,-53L56.9,62.9Z" class="g1_57" />
<path d="M56.8,115.9L24.7,96.1l0.1,-53L56.9,62.9l-0.1,53Z" class="g2_57" />
<path d="M56.9,62.9L24.8,43.1L73,35.5l32.1,19.7Z" class="g1_57" />
<path d="M56.9,62.9L24.8,43.1L73,35.5l32.1,19.7L56.9,62.9Z" class="g2_57" />
<path d="M105.1,55.2l-0.1,53l-48.2,7.7l0.1,-53Z" class="g1_57" />
<path d="M105.1,55.2l-0.1,53l-48.2,7.7l0.1,-53l48.2,-7.7Z" class="g2_57" />
<path d="M0,952.8l24.9,0L24.9,0L0,0L0,952.8Z" class="g3_57" />
</svg>