<?xml version="1.0" encoding="UTF-8" standalone="no"?>
<!DOCTYPE svg PUBLIC "-//W3C//DTD SVG 1.1//EN"
"http://www.w3.org/Graphics/SVG/1.1/DTD/svg11.dtd">
<svg viewBox="0 0 649 952" version="1.1" xmlns="http://www.w3.org/2000/svg" xmlns:xlink="http://www.w3.org/1999/xlink">
<defs>
<clipPath id="c0_34"><path d="M0,952.8L0,0L649.6,0l0,952.8Z" /></clipPath>
<clipPath id="c1_34"><path d="M0,744.6L0,590l122.3,0l0,154.6Z" /></clipPath>
<style type="text/css"><![CDATA[
.g1_34{
fill: #FFFFFF;
fill-opacity: 0.19999701;
}
.g2_34{
fill: none;
stroke: #652D91;
stroke-width: 2.2916667;
stroke-linecap: butt;
stroke-linejoin: miter;
stroke-miterlimit: 4;
stroke-opacity: 0.19999701;
}
.g3_34{
fill: none;
stroke: #1275BC;
stroke-width: 2.2916667;
stroke-linecap: butt;
stroke-linejoin: miter;
stroke-miterlimit: 4;
stroke-opacity: 0.19999701;
}
.g4_34{
fill: #D1232A;
}
.g5_34{
fill: #007C78;
}
.g6_34{
fill: #652D91;
}
.g7_34{
fill: #1275BC;
}
.g8_34{
fill: none;
stroke: #D1232A;
stroke-width: 1.1458334;
stroke-linecap: butt;
stroke-linejoin: miter;
stroke-miterlimit: 4;
}
.g9_34{
fill: none;
stroke: #D1232A;
stroke-width: 0.7638889;
stroke-linecap: butt;
stroke-linejoin: miter;
stroke-miterlimit: 4;
}
]]></style>
</defs>
<path d="M70.2,564.2L38.1,544.5l0.1,-53l32.1,19.7Z" class="g1_34" />
<path d="M70.2,564.2L38.1,544.5l0.1,-53l32.1,19.7l-0.1,53Z" class="g2_34" />
<path d="M70.3,511.2L38.2,491.5l48.2,-7.7l32,19.7Z" class="g1_34" />
<path d="M70.3,511.2L38.2,491.5l48.2,-7.7l32,19.7l-48.1,7.7Z" class="g2_34" />
<path d="M118.4,503.5l0,53l-48.2,7.7l0.1,-53Z" class="g1_34" />
<path d="M118.4,503.5l0,53l-48.2,7.7l0.1,-53l48.1,-7.7Z" class="g2_34" />
<g clip-path="url(#c0_34)">
<path d="M-7.5,500.1L-39.6,480.4L8.5,472.7l32.1,19.8Z" class="g1_34" />
<path d="M-7.5,500.1L-39.6,480.4L8.5,472.7l32.1,19.8l-48.1,7.6Z" class="g2_34" />
<path d="M40.6,492.5l-0.1,53l-48.1,7.6l0.1,-52.9Z" class="g1_34" />
<path d="M40.6,492.5l-0.1,53l-48.1,7.6l0.1,-52.9l48.1,-7.7Z" class="g2_34" />
</g>
<path d="M40.6,493.2L8.5,473.5l0.1,-53l32.1,19.7Z" class="g1_34" />
<path d="M40.6,493.2L8.5,473.5l0.1,-53l32.1,19.7l-0.1,53Z" class="g2_34" />
<path d="M40.7,440.2L8.6,420.5l48.2,-7.7l32.1,19.8Z" class="g1_34" />
<path d="M40.7,440.2L8.6,420.5l48.2,-7.7l32.1,19.8l-48.2,7.6Z" class="g2_34" />
<path d="M88.9,432.6l-0.1,53l-48.2,7.6l0.1,-53Z" class="g1_34" />
<path d="M88.9,432.6l-0.1,53l-48.2,7.6l0.1,-53l48.2,-7.6Z" class="g2_34" />
<path d="M70.8,742.6l-32,-19.7l0,-53l32.1,19.7Z" class="g1_34" />
<path d="M70.8,742.6l-32,-19.7l0,-53l32.1,19.7l-0.1,53Z" class="g3_34" />
<path d="M70.9,689.6L38.8,669.9L87,662.2L119.1,682Z" class="g1_34" />
<path d="M70.9,689.6L38.8,669.9L87,662.2L119.1,682l-48.2,7.6Z" class="g3_34" />
<path d="M119.1,682L119,734.9l-48.2,7.7l0.1,-53Z" class="g1_34" />
<path d="M119.1,682L119,734.9l-48.2,7.7l0.1,-53L119.1,682Z" class="g3_34" />
<g clip-path="url(#c0_34)">
<path d="M-6.8,678.6L-38.9,658.8L9.2,651.1l32.1,19.8Z" class="g1_34" />
</g>
<g clip-path="url(#c1_34)">
<path d="M-6.8,678.6L-38.9,658.8L9.2,651.1l32.1,19.8l-48.1,7.7Z" class="g3_34" />
</g>
<g clip-path="url(#c0_34)">
<path d="M41.3,670.9l-0.1,53l-48.1,7.6l0.1,-52.9Z" class="g1_34" />
<path d="M41.3,670.9l-0.1,53l-48.1,7.6l0.1,-52.9l48.1,-7.7Z" class="g3_34" />
</g>
<path d="M41.3,671.6L9.2,651.9l0.1,-53l32.1,19.7Z" class="g1_34" />
<path d="M41.3,671.6L9.2,651.9l0.1,-53l32.1,19.7l-0.1,53Z" class="g3_34" />
<path d="M41.4,618.6L9.3,598.9l48.2,-7.7L89.6,611Z" class="g1_34" />
<path d="M41.4,618.6L9.3,598.9l48.2,-7.7L89.6,611l-48.2,7.6Z" class="g3_34" />
<path d="M89.6,611l-0.1,53l-48.2,7.6l0.1,-53Z" class="g1_34" />
<path d="M89.6,611l-0.1,53l-48.2,7.6l0.1,-53L89.6,611Z" class="g3_34" />
<path d="M624.7,414.7l24.9,0l0,-358.4l-24.9,0l0,358.4Z" class="g4_34" />
<path d="M624.7,56.3l24.9,0L649.6,0L624.7,0l0,56.3Z" class="g5_34" />
<path d="M624.7,594.4l24.9,0l0,-179.7l-24.9,0l0,179.7Z" class="g6_34" />
<path d="M624.7,952.8l24.9,0l0,-358.4l-24.9,0l0,358.4Z" class="g7_34" />
<path d="M76.4,89.4c0,0,-8.7,0,-8.7,8.6l0,84.4c0,0,0,8.7,8.7,8.7l498.3,0c0,0,8.7,0,8.7,-8.7l0,-84.4c0,0,0,-8.6,-8.7,-8.6l-498.3,0Z" class="g8_34" />
<path d="M42.6,134.4l0,290.6" class="g8_34" />
<path d="M67.3,134.7l-25.1,0" class="g8_34" />
<path d="M60.5,219.2l-17.3,0" class="g9_34" />
<path d="M60.5,331.8l-17.3,0" class="g9_34" />
<path d="M67.6,424.5l-24.4,0" class="g8_34" />
</svg>