<?xml version="1.0" encoding="UTF-8" standalone="no"?>
<!DOCTYPE svg PUBLIC "-//W3C//DTD SVG 1.1//EN"
"http://www.w3.org/Graphics/SVG/1.1/DTD/svg11.dtd">
<svg viewBox="0 0 649 952" version="1.1" xmlns="http://www.w3.org/2000/svg" xmlns:xlink="http://www.w3.org/1999/xlink">
<defs>
<clipPath id="c0_10"><path d="M0,952.8L0,0L649.6,0l0,952.8Z" /></clipPath>
<clipPath id="c1_10"><path d="M0,184.6L0,29.9l132.9,0l0,154.7Z" /></clipPath>
<style type="text/css"><![CDATA[
.g1_10{
fill: #007C78;
}
.g2_10{
fill: #FFFFFF;
fill-opacity: 0.19999701;
}
.g3_10{
fill: none;
stroke: #007C78;
stroke-width: 2.2916667;
stroke-linecap: butt;
stroke-linejoin: miter;
stroke-miterlimit: 4;
stroke-opacity: 0.19999701;
}
]]></style>
</defs>
<path d="M624.7,952.8l24.9,0L649.6,0L624.7,0l0,952.8Z" class="g1_10" />
<path d="M81.3,182.5l-32,-19.7l0.1,-53l32,19.7Z" class="g2_10" />
<path d="M81.3,182.5l-32,-19.7l0.1,-53l32,19.7l-0.1,53Z" class="g3_10" />
<path d="M81.4,129.5l-32,-19.7l48.1,-7.7l32.1,19.8Z" class="g2_10" />
<path d="M81.4,129.5l-32,-19.7l48.1,-7.7l32.1,19.8l-48.2,7.6Z" class="g3_10" />
<path d="M129.6,121.9l-0.1,53l-48.2,7.6l0.1,-53Z" class="g2_10" />
<path d="M129.6,121.9l-0.1,53l-48.2,7.6l0.1,-53l48.2,-7.6Z" class="g3_10" />
<g clip-path="url(#c0_10)">
<path d="M3.5,171.5l-32,-19.8l0.1,-53l32,19.8Z" class="g2_10" />
</g>
<g clip-path="url(#c1_10)">
<path d="M3.5,171.5l-32,-19.8l0.1,-53l32,19.8l-0.1,53Z" class="g3_10" />
</g>
<g clip-path="url(#c0_10)">
<path d="M3.6,118.5l-32,-19.8L19.7,91.1l32.1,19.7Z" class="g2_10" />
</g>
<g clip-path="url(#c1_10)">
<path d="M3.6,118.5l-32,-19.8L19.7,91.1l32.1,19.7L3.6,118.5Z" class="g3_10" />
</g>
<path d="M51.8,110.8l-0.1,53L3.5,171.5l0.1,-53Z" class="g2_10" />
<path d="M51.8,110.8l-0.1,53L3.5,171.5l0.1,-53l48.2,-7.7Z" class="g3_10" />
<path d="M51.8,111.5L19.7,91.8l0.1,-53L51.9,58.6Z" class="g2_10" />
<path d="M51.8,111.5L19.7,91.8l0.1,-53L51.9,58.6l-0.1,52.9Z" class="g3_10" />
<path d="M51.9,58.6L19.8,38.8L68,31.1l32.1,19.8Z" class="g2_10" />
<path d="M51.9,58.6L19.8,38.8L68,31.1l32.1,19.8L51.9,58.6Z" class="g3_10" />
<path d="M100.1,50.9l-0.1,53l-48.2,7.6L51.9,58.6Z" class="g2_10" />
<path d="M100.1,50.9l-0.1,53l-48.2,7.6L51.9,58.6l48.2,-7.7Z" class="g3_10" />
</svg>